<svg id="svg" version="1.1" xmlns="http://www.w3.org/2000/svg" xmlns:xlink="http://www.w3.org/1999/xlink" width="400" height="400" viewBox="0, 0, 400,400"><g id="svgg"><path id="path0" d="M0.000 34.800 C 0.000 57.283,0.139 69.600,0.392 69.600 C 0.833 69.600,1.040 68.784,1.398 65.637 C 1.533 64.448,1.883 63.008,2.175 62.437 C 2.467 61.867,2.833 60.464,2.988 59.320 C 3.143 58.176,3.510 57.041,3.803 56.797 C 4.097 56.553,4.464 55.599,4.618 54.677 C 4.772 53.755,5.221 52.370,5.616 51.600 C 6.011 50.830,6.527 49.750,6.764 49.200 C 7.001 48.650,7.356 47.930,7.554 47.600 C 7.752 47.270,8.112 46.550,8.354 46.000 C 8.596 45.450,8.946 44.730,9.132 44.400 C 9.319 44.070,9.725 43.317,10.035 42.727 C 13.364 36.399,17.962 30.354,24.158 24.158 C 30.354 17.962,36.399 13.364,42.727 10.035 C 43.317 9.725,44.070 9.319,44.400 9.132 C 44.730 8.946,45.450 8.596,46.000 8.354 C 46.550 8.112,47.270 7.752,47.600 7.554 C 47.930 7.356,48.650 7.000,49.200 6.763 C 49.750 6.526,50.920 6.000,51.800 5.594 C 52.680 5.189,54.030 4.734,54.800 4.584 C 55.570 4.434,56.470 4.077,56.800 3.791 C 57.130 3.505,58.300 3.142,59.400 2.984 C 60.500 2.825,61.867 2.459,62.437 2.170 C 63.008 1.881,64.448 1.533,65.637 1.398 C 68.784 1.040,69.600 0.833,69.600 0.392 C 69.600 0.139,57.283 0.000,34.800 0.000 L 0.000 0.000 0.000 34.800 M330.400 0.392 C 330.400 0.833,331.216 1.040,334.363 1.398 C 335.552 1.533,336.992 1.883,337.563 2.175 C 338.133 2.467,339.536 2.833,340.680 2.988 C 341.824 3.143,342.959 3.510,343.203 3.803 C 343.447 4.097,344.401 4.464,345.323 4.618 C 346.245 4.772,347.630 5.221,348.400 5.616 C 349.170 6.011,350.250 6.527,350.800 6.764 C 351.350 7.001,352.070 7.358,352.400 7.558 C 352.730 7.759,354.170 8.494,355.600 9.192 C 369.524 15.989,384.011 30.476,390.808 44.400 C 391.506 45.830,392.241 47.270,392.442 47.600 C 392.642 47.930,392.999 48.650,393.236 49.200 C 393.473 49.750,393.989 50.830,394.384 51.600 C 394.779 52.370,395.228 53.755,395.382 54.677 C 395.536 55.599,395.903 56.553,396.197 56.797 C 396.490 57.041,396.857 58.176,397.012 59.320 C 397.167 60.464,397.533 61.867,397.825 62.437 C 398.117 63.008,398.467 64.448,398.602 65.637 C 398.960 68.784,399.167 69.600,399.608 69.600 C 399.861 69.600,400.000 57.283,400.000 34.800 L 400.000 0.000 365.200 0.000 C 342.717 0.000,330.400 0.139,330.400 0.392 M103.600 54.439 C 103.050 54.667,101.715 55.023,100.634 55.229 C 98.144 55.704,92.802 58.301,91.423 59.706 C 91.042 60.094,90.100 60.893,89.330 61.481 C 87.742 62.692,83.600 67.823,83.600 68.580 C 83.600 68.854,83.240 69.493,82.800 70.000 C 82.360 70.507,82.000 71.303,82.000 71.767 C 82.000 72.232,81.608 73.329,81.130 74.206 C 79.809 76.625,79.804 88.457,81.122 91.278 C 81.605 92.311,82.000 93.453,82.000 93.815 C 82.000 94.177,82.360 94.931,82.800 95.491 C 83.240 96.050,83.600 96.719,83.600 96.976 C 83.600 97.702,86.207 101.214,88.296 103.304 C 91.175 106.182,96.115 109.225,98.834 109.793 C 99.585 109.950,100.632 110.353,101.160 110.688 C 102.779 111.716,113.645 111.543,116.000 110.452 C 116.990 109.993,118.181 109.614,118.646 109.609 C 119.111 109.604,119.950 109.240,120.509 108.800 C 121.069 108.360,121.730 108.000,121.980 108.000 C 123.965 108.000,133.200 98.673,133.200 96.668 C 133.200 96.480,133.560 95.869,134.000 95.309 C 134.440 94.750,134.800 93.979,134.800 93.597 C 134.800 93.215,135.178 92.047,135.640 91.003 C 136.846 88.277,136.891 77.427,135.708 74.748 C 135.283 73.787,134.801 72.460,134.636 71.800 C 134.472 71.140,134.103 70.330,133.816 70.000 C 133.529 69.670,133.161 68.950,132.998 68.400 C 132.834 67.850,132.408 67.099,132.050 66.732 C 131.693 66.365,130.869 65.328,130.221 64.428 C 129.572 63.529,128.087 62.031,126.921 61.101 C 125.754 60.170,124.800 59.272,124.800 59.104 C 124.800 58.937,124.554 58.800,124.254 58.800 C 123.954 58.800,123.279 58.465,122.754 58.055 C 122.229 57.645,121.350 57.174,120.800 57.008 C 120.250 56.841,119.530 56.478,119.200 56.200 C 117.522 54.786,105.922 53.477,103.600 54.439 M83.785 134.100 C 83.680 134.375,83.641 175.460,83.697 225.400 L 83.800 316.200 108.300 316.303 L 132.800 316.406 132.800 225.003 L 132.800 133.600 108.387 133.600 C 89.225 133.600,83.934 133.708,83.785 134.100 M167.200 225.000 L 167.200 316.406 191.700 316.303 L 216.200 316.200 216.400 265.000 C 216.561 223.811,216.702 213.620,217.124 212.881 C 217.412 212.376,217.814 210.936,218.017 209.681 C 218.220 208.427,218.641 206.860,218.953 206.200 C 219.264 205.540,219.987 204.007,220.560 202.794 C 221.132 201.581,221.600 200.449,221.600 200.278 C 221.600 199.600,225.824 194.123,227.831 192.200 C 231.276 188.899,233.128 187.528,235.851 186.263 C 236.539 185.943,237.225 185.483,237.375 185.241 C 237.525 184.998,238.044 184.800,238.530 184.800 C 239.015 184.800,240.066 184.450,240.865 184.021 C 245.377 181.603,259.149 182.337,264.000 185.254 C 264.330 185.453,265.050 185.839,265.600 186.112 C 268.754 187.680,272.770 191.127,275.023 194.200 C 275.668 195.080,276.286 195.890,276.398 196.000 C 277.155 196.749,278.410 198.906,278.643 199.860 C 278.797 200.487,279.255 201.429,279.661 201.954 C 280.067 202.479,280.400 203.134,280.400 203.410 C 280.400 203.687,280.756 204.697,281.191 205.656 C 281.626 206.615,281.986 207.991,281.991 208.713 C 281.996 209.435,282.315 210.695,282.700 211.513 C 283.352 212.898,283.414 216.537,283.600 264.600 L 283.800 316.200 308.300 316.303 L 332.800 316.406 332.800 256.228 C 332.800 205.878,332.708 195.637,332.236 193.525 C 331.925 192.136,331.547 189.380,331.395 187.400 C 331.243 185.420,330.866 183.189,330.556 182.443 C 330.246 181.697,329.830 180.167,329.630 179.043 C 329.234 176.817,328.300 173.931,327.140 171.356 C 326.733 170.452,326.400 169.441,326.400 169.110 C 326.400 168.779,326.067 168.079,325.661 167.554 C 325.255 167.029,324.797 166.090,324.645 165.466 C 324.492 164.842,324.192 164.122,323.976 163.866 C 323.151 162.883,321.214 159.783,321.207 159.434 C 321.203 159.232,320.926 158.782,320.591 158.434 C 320.256 158.085,319.444 157.080,318.786 156.200 C 315.273 151.498,311.162 147.427,307.493 145.016 C 306.811 144.567,305.790 143.890,305.226 143.511 C 304.662 143.132,303.537 142.460,302.727 142.017 C 301.917 141.574,301.141 141.029,301.004 140.806 C 300.866 140.583,300.428 140.400,300.030 140.400 C 299.633 140.400,298.879 140.063,298.354 139.652 C 297.829 139.241,296.770 138.771,296.000 138.608 C 295.230 138.444,294.330 138.081,294.000 137.799 C 293.670 137.517,292.590 137.160,291.600 137.005 C 290.610 136.850,289.419 136.482,288.954 136.188 C 288.488 135.893,286.238 135.453,283.954 135.209 C 281.669 134.965,279.170 134.561,278.400 134.311 C 276.642 133.740,264.655 133.835,263.545 134.429 C 263.109 134.663,261.136 135.021,259.159 135.225 C 257.183 135.430,255.079 135.846,254.483 136.151 C 253.887 136.456,252.594 136.839,251.609 137.003 C 250.624 137.167,249.454 137.531,249.009 137.811 C 248.564 138.092,247.618 138.443,246.906 138.591 C 244.959 138.997,236.108 143.586,233.564 145.510 C 232.334 146.439,231.164 147.203,230.964 147.206 C 230.469 147.214,220.400 157.416,220.400 157.909 C 220.400 158.125,220.120 158.535,219.777 158.819 C 219.434 159.104,218.903 159.936,218.597 160.668 C 218.291 161.401,217.874 162.000,217.669 162.000 C 216.542 162.000,216.408 160.566,216.305 147.366 L 216.200 133.800 191.700 133.697 L 167.200 133.594 167.200 225.000 M0.000 365.200 L 0.000 400.000 34.800 400.000 C 57.283 400.000,69.600 399.861,69.600 399.608 C 69.600 399.167,68.784 398.960,65.637 398.602 C 64.448 398.467,63.008 398.117,62.437 397.825 C 61.867 397.533,60.464 397.167,59.320 397.012 C 58.176 396.857,57.041 396.490,56.797 396.197 C 56.553 395.903,55.599 395.536,54.677 395.382 C 53.755 395.228,52.370 394.779,51.600 394.384 C 50.830 393.989,49.750 393.473,49.200 393.236 C 48.650 392.999,47.930 392.644,47.600 392.446 C 47.270 392.248,46.550 391.888,46.000 391.646 C 45.450 391.404,44.730 391.054,44.400 390.868 C 44.070 390.681,43.317 390.275,42.727 389.965 C 36.399 386.636,30.354 382.038,24.158 375.842 C 17.962 369.646,13.364 363.601,10.035 357.273 C 9.725 356.683,9.319 355.930,9.132 355.600 C 8.946 355.270,8.596 354.550,8.354 354.000 C 8.112 353.450,7.752 352.730,7.554 352.400 C 7.356 352.070,7.000 351.350,6.763 350.800 C 6.526 350.250,6.000 349.080,5.594 348.200 C 5.189 347.320,4.734 345.970,4.584 345.200 C 4.434 344.430,4.077 343.530,3.791 343.200 C 3.505 342.870,3.142 341.700,2.984 340.600 C 2.825 339.500,2.459 338.133,2.170 337.563 C 1.881 336.992,1.533 335.552,1.398 334.363 C 1.040 331.216,0.833 330.400,0.392 330.400 C 0.139 330.400,0.000 342.717,0.000 365.200 M399.032 331.300 C 398.931 331.795,398.738 333.173,398.602 334.363 C 398.467 335.552,398.117 336.992,397.825 337.563 C 397.533 338.133,397.167 339.536,397.012 340.680 C 396.857 341.824,396.490 342.959,396.197 343.203 C 395.903 343.447,395.536 344.401,395.382 345.323 C 395.228 346.245,394.779 347.630,394.384 348.400 C 393.989 349.170,393.473 350.250,393.236 350.800 C 392.999 351.350,392.644 352.070,392.446 352.400 C 392.248 352.730,391.888 353.450,391.646 354.000 C 391.404 354.550,391.054 355.270,390.868 355.600 C 390.681 355.930,390.275 356.683,389.965 357.273 C 386.636 363.601,382.038 369.646,375.842 375.842 C 369.077 382.607,362.618 387.382,355.600 390.808 C 354.170 391.506,352.730 392.241,352.400 392.442 C 352.070 392.642,351.350 392.999,350.800 393.236 C 350.250 393.473,349.170 393.989,348.400 394.384 C 347.630 394.779,346.245 395.228,345.323 395.382 C 344.401 395.536,343.447 395.903,343.203 396.197 C 342.959 396.490,341.824 396.857,340.680 397.012 C 339.536 397.167,338.133 397.533,337.563 397.825 C 336.992 398.117,335.552 398.467,334.363 398.602 C 331.216 398.960,330.400 399.167,330.400 399.608 C 330.400 399.861,342.717 400.000,365.200 400.000 L 400.000 400.000 400.000 365.200 C 400.000 333.221,399.833 327.370,399.032 331.300 " stroke="none" fill="#fbfbfb" fill-rule="evenodd"></path><path id="path1" d="M77.523 0.432 C 77.309 1.073,72.970 1.984,70.000 2.011 C 68.570 2.024,66.680 2.313,65.800 2.653 C 64.920 2.993,63.132 3.452,61.827 3.674 C 60.521 3.896,59.081 4.321,58.627 4.619 C 58.172 4.916,57.038 5.281,56.108 5.430 C 55.177 5.578,54.214 5.943,53.967 6.239 C 53.721 6.536,52.863 6.900,52.060 7.047 C 51.257 7.195,50.171 7.650,49.646 8.058 C 49.121 8.466,48.430 8.800,48.109 8.800 C 47.789 8.800,47.069 9.160,46.509 9.600 C 45.950 10.040,45.254 10.400,44.964 10.400 C 44.673 10.400,43.772 10.850,42.962 11.400 C 42.151 11.950,41.243 12.400,40.944 12.400 C 40.645 12.400,40.400 12.578,40.400 12.795 C 40.400 13.012,39.815 13.434,39.100 13.733 C 38.385 14.032,37.553 14.574,37.251 14.938 C 36.949 15.302,36.544 15.600,36.351 15.600 C 36.158 15.600,35.640 15.915,35.200 16.300 C 34.760 16.685,34.054 17.301,33.630 17.670 C 33.207 18.038,32.479 18.544,32.012 18.793 C 30.055 19.841,19.841 30.055,18.793 32.012 C 18.544 32.479,17.993 33.252,17.570 33.730 C 15.887 35.631,15.600 36.014,15.600 36.351 C 15.600 36.544,15.302 36.949,14.938 37.251 C 14.574 37.553,14.032 38.385,13.733 39.100 C 13.434 39.815,13.012 40.400,12.795 40.400 C 12.578 40.400,12.400 40.645,12.400 40.944 C 12.400 41.243,11.950 42.151,11.400 42.962 C 10.850 43.772,10.400 44.673,10.400 44.964 C 10.400 45.254,10.040 45.950,9.600 46.509 C 9.160 47.069,8.800 47.789,8.800 48.109 C 8.800 48.430,8.466 49.121,8.058 49.646 C 7.650 50.171,7.195 51.257,7.047 52.060 C 6.900 52.863,6.536 53.721,6.239 53.967 C 5.943 54.214,5.578 55.177,5.430 56.108 C 5.281 57.038,4.907 58.185,4.599 58.656 C 4.291 59.127,3.920 60.477,3.774 61.656 C 3.628 62.835,3.246 64.218,2.925 64.730 C 2.585 65.272,2.188 67.522,1.971 70.130 C 1.521 75.537,1.262 76.801,0.547 77.076 C -0.169 77.351,-0.284 322.239,0.432 322.477 C 1.073 322.691,1.984 327.030,2.011 330.000 C 2.024 331.430,2.313 333.320,2.653 334.200 C 2.993 335.080,3.452 336.868,3.674 338.173 C 3.896 339.479,4.321 340.919,4.619 341.373 C 4.916 341.828,5.281 342.962,5.430 343.892 C 5.578 344.823,5.943 345.786,6.239 346.033 C 6.536 346.279,6.900 347.137,7.047 347.940 C 7.195 348.743,7.650 349.829,8.058 350.354 C 8.466 350.879,8.800 351.570,8.800 351.891 C 8.800 352.211,9.160 352.931,9.600 353.491 C 10.040 354.050,10.400 354.746,10.400 355.036 C 10.400 355.327,10.850 356.228,11.400 357.038 C 11.950 357.849,12.400 358.757,12.400 359.056 C 12.400 359.355,12.578 359.600,12.795 359.600 C 13.012 359.600,13.434 360.185,13.733 360.900 C 14.032 361.615,14.574 362.447,14.938 362.749 C 15.302 363.051,15.600 363.456,15.600 363.649 C 15.600 363.842,15.960 364.405,16.400 364.900 C 17.970 366.666,18.345 367.151,18.793 367.988 C 19.841 369.945,30.055 380.159,32.012 381.207 C 32.479 381.456,33.207 381.962,33.630 382.330 C 34.054 382.699,34.760 383.315,35.200 383.700 C 35.640 384.085,36.158 384.400,36.351 384.400 C 36.544 384.400,36.949 384.698,37.251 385.062 C 37.553 385.426,38.385 385.968,39.100 386.267 C 39.815 386.566,40.400 386.988,40.400 387.205 C 40.400 387.422,40.645 387.600,40.944 387.600 C 41.243 387.600,42.151 388.050,42.962 388.600 C 43.772 389.150,44.673 389.600,44.964 389.600 C 45.254 389.600,45.950 389.960,46.509 390.400 C 47.069 390.840,47.789 391.200,48.109 391.200 C 48.430 391.200,49.121 391.534,49.646 391.942 C 50.171 392.350,51.257 392.805,52.060 392.953 C 52.863 393.100,53.721 393.464,53.967 393.761 C 54.214 394.057,55.177 394.422,56.108 394.570 C 57.038 394.719,58.172 395.084,58.627 395.381 C 59.081 395.679,60.521 396.104,61.827 396.326 C 63.132 396.548,64.920 397.007,65.800 397.347 C 66.680 397.687,68.570 397.976,70.000 397.989 C 72.970 398.016,77.309 398.927,77.523 399.568 C 77.712 400.135,322.400 400.185,322.400 399.619 C 322.400 398.982,325.164 398.388,329.870 398.013 C 332.508 397.803,334.721 397.419,335.270 397.075 C 335.782 396.754,337.165 396.372,338.344 396.226 C 339.523 396.080,340.873 395.709,341.344 395.401 C 341.815 395.093,342.962 394.719,343.892 394.570 C 344.823 394.422,345.786 394.057,346.033 393.761 C 346.279 393.464,347.137 393.100,347.940 392.953 C 348.743 392.805,349.829 392.350,350.354 391.942 C 350.879 391.534,351.570 391.200,351.891 391.200 C 352.211 391.200,352.931 390.840,353.491 390.400 C 354.050 389.960,354.746 389.600,355.036 389.600 C 355.327 389.600,356.228 389.150,357.038 388.600 C 357.849 388.050,358.757 387.600,359.056 387.600 C 359.355 387.600,359.600 387.422,359.600 387.205 C 359.600 386.988,360.185 386.566,360.900 386.267 C 361.615 385.968,362.447 385.426,362.749 385.062 C 363.051 384.698,363.456 384.400,363.649 384.400 C 363.842 384.400,364.315 384.119,364.700 383.775 C 365.085 383.431,366.120 382.623,367.000 381.979 C 371.109 378.973,380.029 370.189,381.207 367.988 C 381.456 367.521,382.007 366.748,382.430 366.270 C 384.113 364.369,384.400 363.986,384.400 363.649 C 384.400 363.456,384.698 363.051,385.062 362.749 C 385.426 362.447,385.968 361.615,386.267 360.900 C 386.566 360.185,386.988 359.600,387.205 359.600 C 387.422 359.600,387.600 359.355,387.600 359.056 C 387.600 358.757,388.050 357.849,388.600 357.038 C 389.150 356.228,389.600 355.327,389.600 355.036 C 389.600 354.746,389.960 354.050,390.400 353.491 C 390.840 352.931,391.200 352.211,391.200 351.891 C 391.200 351.570,391.534 350.879,391.942 350.354 C 392.350 349.829,392.805 348.743,392.953 347.940 C 393.100 347.137,393.464 346.279,393.761 346.033 C 394.057 345.786,394.422 344.823,394.570 343.892 C 394.719 342.962,395.084 341.828,395.381 341.373 C 395.679 340.919,396.104 339.479,396.326 338.173 C 396.548 336.868,397.007 335.080,397.347 334.200 C 397.687 333.320,397.976 331.430,397.989 330.000 C 398.016 327.030,398.927 322.691,399.568 322.477 C 400.181 322.273,400.181 77.727,399.568 77.523 C 398.927 77.309,398.016 72.970,397.989 70.000 C 397.976 68.570,397.687 66.680,397.347 65.800 C 397.007 64.920,396.548 63.132,396.326 61.827 C 396.104 60.521,395.679 59.081,395.381 58.627 C 395.084 58.172,394.719 57.038,394.570 56.108 C 394.422 55.177,394.057 54.214,393.761 53.967 C 393.464 53.721,393.100 52.863,392.953 52.060 C 392.805 51.257,392.350 50.171,391.942 49.646 C 391.534 49.121,391.200 48.430,391.200 48.109 C 391.200 47.789,390.840 47.069,390.400 46.509 C 389.960 45.950,389.600 45.254,389.600 44.964 C 389.600 44.673,389.150 43.772,388.600 42.962 C 388.050 42.151,387.600 41.243,387.600 40.944 C 387.600 40.645,387.422 40.400,387.205 40.400 C 386.988 40.400,386.566 39.815,386.267 39.100 C 385.968 38.385,385.426 37.553,385.062 37.251 C 384.698 36.949,384.400 36.544,384.400 36.351 C 384.400 36.158,384.119 35.685,383.775 35.300 C 383.431 34.915,382.623 33.880,381.979 33.000 C 378.973 28.891,370.189 19.971,367.988 18.793 C 367.521 18.544,366.793 18.038,366.370 17.670 C 365.946 17.301,365.240 16.685,364.800 16.300 C 364.360 15.915,363.842 15.600,363.649 15.600 C 363.456 15.600,363.051 15.302,362.749 14.938 C 362.447 14.574,361.615 14.032,360.900 13.733 C 360.185 13.434,359.600 13.012,359.600 12.795 C 359.600 12.578,359.355 12.400,359.056 12.400 C 358.757 12.400,357.849 11.950,357.038 11.400 C 356.228 10.850,355.327 10.400,355.036 10.400 C 354.746 10.400,354.050 10.040,353.491 9.600 C 352.931 9.160,352.211 8.800,351.891 8.800 C 351.570 8.800,350.879 8.466,350.354 8.058 C 349.829 7.650,348.743 7.195,347.940 7.047 C 347.137 6.900,346.279 6.536,346.033 6.239 C 345.786 5.943,344.823 5.578,343.892 5.430 C 342.962 5.281,341.828 4.916,341.373 4.619 C 340.919 4.321,339.479 3.896,338.173 3.674 C 336.868 3.452,335.080 2.993,334.200 2.653 C 333.320 2.313,331.430 2.024,330.000 2.011 C 327.030 1.984,322.691 1.073,322.477 0.432 C 322.273 -0.181,77.727 -0.181,77.523 0.432 M116.200 53.676 C 116.860 54.048,118.084 54.463,118.921 54.598 C 119.758 54.733,120.542 55.104,120.664 55.422 C 120.786 55.740,121.181 56.003,121.543 56.007 C 122.124 56.014,124.091 57.175,126.638 59.014 C 128.928 60.667,133.600 65.827,133.600 66.702 C 133.600 66.916,133.949 67.536,134.375 68.078 C 134.802 68.620,135.276 69.589,135.429 70.232 C 135.582 70.874,135.945 71.675,136.235 72.010 C 136.525 72.346,136.879 73.426,137.022 74.410 C 137.166 75.395,137.534 77.088,137.841 78.173 C 138.556 80.698,138.558 85.085,137.844 87.286 C 137.539 88.229,137.178 89.887,137.042 90.971 C 136.907 92.055,136.547 93.225,136.242 93.571 C 135.938 93.917,135.562 94.797,135.407 95.527 C 135.252 96.257,134.883 96.947,134.587 97.060 C 134.291 97.174,133.940 97.764,133.806 98.372 C 133.673 98.980,132.852 100.218,131.982 101.123 C 131.112 102.028,130.400 102.913,130.400 103.089 C 130.400 103.265,129.847 103.857,129.171 104.404 C 128.495 104.952,127.520 105.760,127.004 106.200 C 126.488 106.640,125.586 107.405,124.999 107.900 C 124.412 108.395,123.615 108.800,123.228 108.800 C 122.841 108.800,122.198 109.160,121.800 109.600 C 121.402 110.040,120.694 110.400,120.227 110.400 C 119.760 110.400,118.934 110.711,118.391 111.091 C 115.416 113.175,101.380 113.177,98.411 111.094 C 97.867 110.712,97.019 110.400,96.527 110.400 C 96.034 110.400,95.309 110.065,94.916 109.656 C 94.522 109.247,93.748 108.805,93.196 108.673 C 92.644 108.541,91.496 107.796,90.646 107.017 C 89.795 106.237,88.975 105.600,88.823 105.600 C 88.555 105.600,87.678 104.640,84.800 101.193 C 83.452 99.578,82.551 98.122,81.587 96.000 C 81.337 95.450,80.853 94.460,80.512 93.800 C 79.950 92.714,79.635 91.405,78.395 85.000 C 77.968 82.793,78.228 79.832,79.059 77.450 C 79.357 76.597,79.600 75.362,79.600 74.704 C 79.600 74.047,79.938 72.854,80.351 72.054 C 80.764 71.255,81.313 70.150,81.571 69.600 C 82.622 67.356,83.379 66.112,84.734 64.400 C 86.796 61.795,90.857 58.013,91.871 57.752 C 92.350 57.629,92.833 57.291,92.944 57.002 C 93.055 56.712,93.686 56.357,94.345 56.212 C 95.005 56.067,95.755 55.695,96.013 55.385 C 96.270 55.075,97.137 54.717,97.940 54.589 C 98.743 54.461,99.754 54.160,100.187 53.920 C 101.870 52.988,103.204 52.836,109.000 52.917 C 113.781 52.983,115.244 53.137,116.200 53.676 M133.586 133.574 C 134.165 134.655,134.165 315.345,133.586 316.426 C 133.074 317.383,84.228 317.668,83.280 316.720 C 82.581 316.021,82.581 133.979,83.280 133.280 C 84.228 132.332,133.074 132.617,133.586 133.574 M216.745 133.334 C 217.045 133.696,217.223 138.133,217.294 147.034 C 217.381 157.821,217.489 160.001,217.890 159.100 C 218.160 158.495,218.536 158.000,218.726 158.000 C 218.916 158.000,219.269 157.566,219.511 157.036 C 220.130 155.677,227.239 148.354,229.291 146.962 C 230.231 146.324,231.094 145.678,231.209 145.525 C 231.580 145.032,234.520 143.135,235.474 142.772 C 235.983 142.578,236.400 142.242,236.400 142.025 C 236.400 141.808,237.120 141.437,238.000 141.200 C 238.880 140.963,239.600 140.610,239.600 140.416 C 239.600 140.221,240.270 139.841,241.089 139.571 C 241.908 139.300,242.804 138.853,243.081 138.576 C 243.358 138.299,244.297 137.953,245.169 137.805 C 246.041 137.658,246.950 137.301,247.190 137.012 C 247.430 136.723,248.460 136.362,249.480 136.209 C 250.499 136.056,251.747 135.660,252.252 135.329 C 252.758 134.998,254.303 134.637,255.686 134.527 C 257.069 134.417,258.830 134.029,259.600 133.664 C 261.657 132.689,282.922 132.667,284.418 133.638 C 284.958 133.989,286.449 134.382,287.731 134.512 C 289.013 134.642,290.453 135.003,290.931 135.314 C 291.409 135.625,292.520 136.012,293.400 136.173 C 294.280 136.335,295.270 136.706,295.600 136.997 C 295.930 137.288,296.944 137.724,297.853 137.966 C 298.763 138.208,299.730 138.674,300.002 139.003 C 300.275 139.331,300.812 139.600,301.195 139.600 C 301.578 139.600,302.350 139.960,302.909 140.400 C 303.469 140.840,304.095 141.200,304.301 141.200 C 304.507 141.200,305.002 141.560,305.400 142.000 C 305.798 142.440,306.357 142.800,306.641 142.800 C 306.926 142.800,307.620 143.205,308.183 143.700 C 308.747 144.195,309.668 144.960,310.230 145.400 C 311.694 146.547,317.200 151.850,317.200 152.113 C 317.200 152.235,317.875 153.068,318.700 153.964 C 320.807 156.252,321.844 157.661,322.159 158.663 C 322.308 159.138,322.677 159.621,322.978 159.736 C 323.278 159.851,323.649 160.510,323.800 161.200 C 323.951 161.890,324.317 162.547,324.613 162.660 C 324.909 162.774,325.264 163.379,325.401 164.006 C 325.539 164.632,325.905 165.355,326.215 165.613 C 326.525 165.870,326.892 166.686,327.031 167.426 C 327.170 168.166,327.530 168.976,327.831 169.226 C 328.132 169.476,328.495 170.337,328.638 171.140 C 328.781 171.943,329.235 173.161,329.649 173.847 C 330.062 174.533,330.400 175.668,330.400 176.369 C 330.400 177.070,330.736 178.399,331.147 179.322 C 331.559 180.245,332.013 182.337,332.157 183.970 C 332.301 185.604,332.618 187.181,332.863 187.475 C 333.974 188.814,334.678 314.386,333.586 316.426 C 333.074 317.383,284.228 317.668,283.280 316.720 C 282.912 316.352,282.800 305.152,282.800 268.746 C 282.800 228.987,282.706 220.807,282.225 218.520 C 281.909 217.016,281.522 214.350,281.366 212.593 C 281.203 210.763,280.765 208.805,280.341 208.006 C 279.933 207.239,279.600 206.098,279.600 205.469 C 279.600 204.840,279.240 203.869,278.800 203.309 C 278.360 202.750,278.000 201.981,278.000 201.600 C 278.000 201.219,277.640 200.450,277.200 199.891 C 276.760 199.331,276.400 198.692,276.400 198.471 C 276.400 198.249,276.042 197.648,275.604 197.134 C 274.454 195.786,272.473 193.204,272.326 192.863 C 272.257 192.702,271.390 191.947,270.400 191.185 C 269.410 190.423,268.506 189.676,268.391 189.524 C 267.918 188.898,265.107 187.192,264.157 186.954 C 263.595 186.812,263.048 186.469,262.941 186.190 C 262.834 185.911,261.903 185.560,260.873 185.410 C 259.843 185.260,258.550 184.845,258.000 184.488 C 256.492 183.508,245.011 183.527,243.604 184.512 C 243.068 184.888,241.778 185.308,240.739 185.446 C 239.699 185.584,238.757 185.935,238.645 186.226 C 238.534 186.518,237.803 186.876,237.021 187.022 C 236.239 187.169,235.600 187.445,235.600 187.636 C 235.600 187.827,234.925 188.336,234.100 188.767 C 232.739 189.478,231.210 190.702,228.400 193.332 C 227.405 194.263,227.135 194.620,225.551 197.100 C 225.095 197.815,224.571 198.400,224.387 198.400 C 224.204 198.400,223.927 198.805,223.772 199.300 C 223.617 199.795,223.155 200.629,222.745 201.154 C 222.335 201.679,222.000 202.422,222.000 202.805 C 222.000 203.188,221.735 203.722,221.411 203.991 C 221.086 204.260,220.704 205.137,220.560 205.940 C 220.417 206.743,219.983 208.120,219.597 209.000 C 219.211 209.880,218.768 211.860,218.613 213.400 C 218.458 214.940,218.076 217.427,217.765 218.926 C 217.297 221.186,217.200 229.749,217.200 268.946 C 217.200 305.197,217.088 316.352,216.720 316.720 C 215.772 317.668,166.926 317.383,166.414 316.426 C 165.835 315.345,165.835 134.655,166.414 133.574 C 166.952 132.569,215.917 132.336,216.745 133.334 " stroke="none" fill="#040404" fill-rule="evenodd"></path><path id="path2" d="M72.998 0.617 C 72.756 0.992,71.578 1.377,70.000 1.597 C 67.458 1.952,67.480 1.956,71.000 1.807 C 74.757 1.647,77.600 1.033,77.600 0.381 C 77.600 -0.287,73.443 -0.073,72.998 0.617 M322.400 0.381 C 322.400 1.033,325.243 1.647,329.000 1.807 C 332.530 1.957,332.549 1.953,330.005 1.594 C 328.494 1.381,327.222 0.971,326.961 0.614 C 326.459 -0.072,322.400 -0.279,322.400 0.381 M64.297 2.434 C 63.911 2.659,62.471 3.096,61.097 3.406 C 58.564 3.978,54.783 5.202,52.600 6.159 C 46.926 8.644,43.077 10.592,40.559 12.253 C 39.436 12.994,38.382 13.600,38.216 13.600 C 38.051 13.600,37.420 14.005,36.813 14.500 C 36.207 14.995,35.306 15.670,34.810 16.000 C 33.729 16.720,31.380 18.494,30.000 19.632 C 28.390 20.959,21.321 27.987,20.015 29.559 C 18.543 31.330,16.800 33.609,16.000 34.810 C 15.670 35.306,14.995 36.207,14.500 36.813 C 14.005 37.420,13.600 38.051,13.600 38.216 C 13.600 38.382,12.994 39.436,12.253 40.559 C 10.563 43.121,8.249 47.704,5.972 53.000 C 5.169 54.867,3.930 58.776,3.410 61.079 C 3.102 62.443,2.673 63.889,2.457 64.294 C 2.240 64.698,1.873 66.732,1.641 68.813 C 1.358 71.351,1.018 72.744,0.609 73.043 C -0.147 73.596,-0.269 77.356,0.478 77.107 C 1.201 76.866,1.591 75.059,1.985 70.130 C 2.196 67.495,2.582 65.278,2.925 64.730 C 3.246 64.218,3.628 62.835,3.774 61.656 C 3.920 60.477,4.291 59.127,4.599 58.656 C 4.907 58.185,5.281 57.038,5.430 56.108 C 5.578 55.177,5.943 54.214,6.239 53.967 C 6.536 53.721,6.900 52.863,7.047 52.060 C 7.195 51.257,7.650 50.171,8.058 49.646 C 8.466 49.121,8.800 48.430,8.800 48.109 C 8.800 47.789,9.160 47.069,9.600 46.509 C 10.040 45.950,10.400 45.254,10.400 44.964 C 10.400 44.673,10.850 43.772,11.400 42.962 C 11.950 42.151,12.400 41.243,12.400 40.944 C 12.400 40.645,12.578 40.400,12.795 40.400 C 13.012 40.400,13.434 39.815,13.733 39.100 C 14.032 38.385,14.574 37.553,14.938 37.251 C 15.302 36.949,15.600 36.544,15.600 36.351 C 15.600 36.158,15.960 35.595,16.400 35.100 C 17.970 33.334,18.345 32.849,18.793 32.012 C 19.841 30.055,30.055 19.841,32.012 18.793 C 32.479 18.544,33.207 18.038,33.630 17.670 C 34.054 17.301,34.760 16.685,35.200 16.300 C 35.640 15.915,36.158 15.600,36.351 15.600 C 36.544 15.600,36.949 15.302,37.251 14.938 C 37.553 14.574,38.385 14.032,39.100 13.733 C 39.815 13.434,40.400 13.012,40.400 12.795 C 40.400 12.578,40.645 12.400,40.944 12.400 C 41.243 12.400,42.151 11.950,42.962 11.400 C 43.772 10.850,44.673 10.400,44.964 10.400 C 45.254 10.400,45.950 10.040,46.509 9.600 C 47.069 9.160,47.789 8.800,48.109 8.800 C 48.430 8.800,49.121 8.466,49.646 8.058 C 50.171 7.650,51.257 7.195,52.060 7.047 C 52.863 6.900,53.721 6.536,53.967 6.239 C 54.214 5.943,55.177 5.578,56.108 5.430 C 57.038 5.281,58.172 4.916,58.627 4.619 C 59.081 4.321,60.521 3.896,61.827 3.674 C 65.055 3.126,67.949 2.038,66.200 2.030 C 65.540 2.027,64.684 2.209,64.297 2.434 M334.200 2.653 C 335.080 2.993,336.868 3.452,338.173 3.674 C 339.479 3.896,340.919 4.321,341.373 4.619 C 341.828 4.916,342.962 5.281,343.892 5.430 C 344.823 5.578,345.786 5.943,346.033 6.239 C 346.279 6.536,347.137 6.900,347.940 7.047 C 348.743 7.195,349.829 7.650,350.354 8.058 C 350.879 8.466,351.570 8.800,351.891 8.800 C 352.211 8.800,352.931 9.160,353.491 9.600 C 354.050 10.040,354.746 10.400,355.036 10.400 C 355.327 10.400,356.228 10.850,357.038 11.400 C 357.849 11.950,358.757 12.400,359.056 12.400 C 359.355 12.400,359.600 12.578,359.600 12.795 C 359.600 13.012,360.185 13.434,360.900 13.733 C 361.615 14.032,362.447 14.574,362.749 14.938 C 363.051 15.302,363.456 15.600,363.649 15.600 C 363.842 15.600,364.360 15.915,364.800 16.300 C 365.240 16.685,365.946 17.301,366.370 17.670 C 366.793 18.038,367.521 18.544,367.988 18.793 C 370.189 19.971,378.973 28.891,381.979 33.000 C 382.623 33.880,383.431 34.915,383.775 35.300 C 384.119 35.685,384.400 36.158,384.400 36.351 C 384.400 36.544,384.698 36.949,385.062 37.251 C 385.426 37.553,385.968 38.385,386.267 39.100 C 386.566 39.815,386.988 40.400,387.205 40.400 C 387.422 40.400,387.600 40.645,387.600 40.944 C 387.600 41.243,388.050 42.151,388.600 42.962 C 389.150 43.772,389.600 44.673,389.600 44.964 C 389.600 45.254,389.960 45.950,390.400 46.509 C 390.840 47.069,391.200 47.789,391.200 48.109 C 391.200 48.430,391.534 49.121,391.942 49.646 C 392.350 50.171,392.805 51.257,392.953 52.060 C 393.100 52.863,393.464 53.721,393.761 53.967 C 394.057 54.214,394.422 55.177,394.570 56.108 C 394.719 57.038,395.084 58.172,395.381 58.627 C 395.679 59.081,396.104 60.521,396.326 61.827 C 396.863 64.987,397.957 67.923,397.982 66.274 C 397.992 65.654,397.809 64.790,397.575 64.353 C 397.341 63.916,396.898 62.443,396.590 61.079 C 396.070 58.776,394.831 54.867,394.028 53.000 C 391.751 47.704,389.437 43.121,387.747 40.559 C 387.006 39.436,386.400 38.389,386.400 38.232 C 386.400 37.978,384.875 35.804,383.800 34.524 C 383.580 34.262,382.950 33.399,382.400 32.606 C 379.785 28.836,372.011 21.063,367.400 17.608 C 366.520 16.949,365.620 16.272,365.400 16.105 C 363.094 14.350,362.007 13.600,361.768 13.600 C 361.611 13.600,360.564 12.994,359.441 12.253 C 356.879 10.563,352.296 8.249,347.000 5.972 C 345.133 5.169,341.224 3.930,338.921 3.410 C 337.557 3.102,336.084 2.659,335.647 2.425 C 335.210 2.191,334.346 2.008,333.726 2.018 C 332.685 2.034,332.720 2.082,334.200 2.653 M101.987 53.159 C 101.430 53.338,100.620 53.680,100.187 53.920 C 99.754 54.160,98.743 54.461,97.940 54.589 C 97.137 54.717,96.270 55.075,96.013 55.385 C 95.755 55.695,95.005 56.067,94.345 56.212 C 93.686 56.357,93.055 56.712,92.944 57.002 C 92.833 57.291,92.350 57.629,91.871 57.752 C 90.857 58.013,86.796 61.795,84.734 64.400 C 83.379 66.112,82.622 67.356,81.571 69.600 C 81.313 70.150,80.764 71.255,80.351 72.054 C 79.938 72.854,79.600 74.047,79.600 74.704 C 79.600 75.362,79.357 76.597,79.059 77.450 C 78.228 79.832,77.968 82.793,78.395 85.000 C 79.635 91.405,79.950 92.714,80.512 93.800 C 80.853 94.460,81.337 95.450,81.587 96.000 C 82.551 98.122,83.452 99.578,84.800 101.193 C 87.678 104.640,88.555 105.600,88.823 105.600 C 88.975 105.600,89.795 106.237,90.646 107.017 C 91.496 107.796,92.644 108.541,93.196 108.673 C 93.748 108.805,94.522 109.247,94.916 109.656 C 95.309 110.065,96.029 110.401,96.516 110.403 C 97.002 110.404,97.940 110.763,98.600 111.200 C 99.273 111.646,100.415 111.978,101.200 111.956 L 102.600 111.918 101.400 111.582 C 99.022 110.917,96.181 109.775,95.211 109.094 C 94.667 108.712,94.069 108.400,93.883 108.400 C 92.155 108.400,83.200 99.595,83.200 97.896 C 83.200 97.658,82.949 97.179,82.643 96.831 C 75.896 89.178,79.558 67.839,88.828 60.786 C 89.541 60.244,90.712 59.335,91.432 58.767 C 100.510 51.602,114.609 51.491,124.852 58.504 C 128.887 61.266,130.646 63.233,134.126 68.879 C 142.883 83.085,134.755 104.574,118.400 110.455 C 114.539 111.844,113.112 112.066,107.800 112.103 C 103.332 112.134,102.910 112.189,104.800 112.490 C 108.908 113.146,116.587 112.355,118.391 111.091 C 118.934 110.711,119.760 110.400,120.227 110.400 C 120.694 110.400,121.402 110.040,121.800 109.600 C 122.198 109.160,122.841 108.800,123.228 108.800 C 123.615 108.800,124.412 108.395,124.999 107.900 C 125.586 107.405,126.488 106.640,127.004 106.200 C 127.520 105.760,128.495 104.952,129.171 104.404 C 129.847 103.857,130.400 103.265,130.400 103.089 C 130.400 102.913,131.112 102.028,131.982 101.123 C 132.852 100.218,133.673 98.980,133.806 98.372 C 133.940 97.764,134.291 97.174,134.587 97.060 C 134.883 96.947,135.252 96.257,135.407 95.527 C 135.562 94.797,135.938 93.917,136.242 93.571 C 136.547 93.225,136.907 92.055,137.042 90.971 C 137.178 89.887,137.539 88.229,137.844 87.286 C 138.558 85.085,138.556 80.698,137.841 78.173 C 137.534 77.088,137.166 75.395,137.022 74.410 C 136.879 73.426,136.525 72.346,136.235 72.010 C 135.945 71.675,135.582 70.874,135.429 70.232 C 135.276 69.589,134.802 68.620,134.375 68.078 C 133.949 67.536,133.600 66.916,133.600 66.702 C 133.600 65.827,128.928 60.667,126.638 59.014 C 124.091 57.175,122.124 56.014,121.543 56.007 C 121.181 56.003,120.786 55.740,120.664 55.422 C 120.542 55.104,119.758 54.733,118.921 54.598 C 118.084 54.463,116.860 54.048,116.200 53.676 C 114.871 52.927,103.946 52.530,101.987 53.159 M398.193 71.000 C 398.353 74.757,398.967 77.600,399.619 77.600 C 400.279 77.600,400.072 73.541,399.386 73.039 C 399.029 72.778,398.619 71.506,398.406 69.995 C 398.047 67.451,398.043 67.470,398.193 71.000 M83.280 133.280 C 82.581 133.979,82.581 316.021,83.280 316.720 C 84.228 317.668,133.074 317.383,133.586 316.426 C 134.165 315.345,134.165 134.655,133.586 133.574 C 133.074 132.617,84.228 132.332,83.280 133.280 M166.414 133.574 C 165.835 134.655,165.835 315.345,166.414 316.426 C 166.926 317.383,215.772 317.668,216.720 316.720 C 217.088 316.352,217.200 305.197,217.200 268.946 C 217.200 229.749,217.297 221.186,217.765 218.926 C 218.076 217.427,218.458 214.940,218.613 213.400 C 218.768 211.860,219.211 209.880,219.597 209.000 C 219.983 208.120,220.417 206.743,220.560 205.940 C 220.704 205.137,221.086 204.260,221.411 203.991 C 221.735 203.722,222.000 203.188,222.000 202.805 C 222.000 202.422,222.335 201.679,222.745 201.154 C 223.155 200.629,223.617 199.795,223.772 199.300 C 223.927 198.805,224.204 198.400,224.387 198.400 C 224.571 198.400,225.095 197.815,225.551 197.100 C 227.135 194.620,227.405 194.263,228.400 193.332 C 231.210 190.702,232.739 189.478,234.100 188.767 C 234.925 188.336,235.600 187.827,235.600 187.636 C 235.600 187.445,236.239 187.169,237.021 187.022 C 237.803 186.876,238.534 186.518,238.645 186.226 C 238.757 185.935,239.699 185.584,240.739 185.446 C 241.778 185.308,243.068 184.888,243.604 184.512 C 245.011 183.527,256.492 183.508,258.000 184.488 C 258.550 184.845,259.843 185.260,260.873 185.410 C 261.903 185.560,262.834 185.911,262.941 186.190 C 263.048 186.469,263.595 186.812,264.157 186.954 C 265.107 187.192,267.918 188.898,268.391 189.524 C 268.506 189.676,269.410 190.423,270.400 191.185 C 271.390 191.947,272.257 192.702,272.326 192.863 C 272.473 193.204,274.454 195.786,275.604 197.134 C 276.042 197.648,276.400 198.249,276.400 198.471 C 276.400 198.692,276.760 199.331,277.200 199.891 C 277.640 200.450,278.000 201.219,278.000 201.600 C 278.000 201.981,278.360 202.750,278.800 203.309 C 279.240 203.869,279.600 204.840,279.600 205.469 C 279.600 206.098,279.933 207.239,280.341 208.006 C 280.765 208.805,281.203 210.763,281.366 212.593 C 281.522 214.350,281.909 217.016,282.225 218.520 C 282.706 220.807,282.800 228.987,282.800 268.746 C 282.800 305.152,282.912 316.352,283.280 316.720 C 284.228 317.668,333.074 317.383,333.586 316.426 C 334.678 314.386,333.974 188.814,332.863 187.475 C 332.618 187.181,332.301 185.604,332.157 183.970 C 332.013 182.337,331.559 180.245,331.147 179.322 C 330.736 178.399,330.400 177.070,330.400 176.369 C 330.400 175.668,330.062 174.533,329.649 173.847 C 329.235 173.161,328.781 171.943,328.638 171.140 C 328.495 170.337,328.132 169.476,327.831 169.226 C 327.530 168.976,327.170 168.166,327.031 167.426 C 326.892 166.686,326.525 165.870,326.215 165.613 C 325.905 165.355,325.539 164.632,325.401 164.006 C 325.264 163.379,324.909 162.774,324.613 162.660 C 324.317 162.547,323.951 161.890,323.800 161.200 C 323.649 160.510,323.278 159.851,322.978 159.736 C 322.677 159.621,322.308 159.138,322.159 158.663 C 321.844 157.661,320.807 156.252,318.700 153.964 C 317.875 153.068,317.200 152.235,317.200 152.113 C 317.200 151.850,311.694 146.547,310.230 145.400 C 309.668 144.960,308.747 144.195,308.183 143.700 C 307.620 143.205,306.926 142.800,306.641 142.800 C 306.357 142.800,305.798 142.440,305.400 142.000 C 305.002 141.560,304.507 141.200,304.301 141.200 C 304.095 141.200,303.469 140.840,302.909 140.400 C 302.350 139.960,301.578 139.600,301.195 139.600 C 300.812 139.600,300.275 139.331,300.002 139.003 C 299.730 138.674,298.763 138.208,297.853 137.966 C 296.944 137.724,295.930 137.288,295.600 136.997 C 295.270 136.706,294.280 136.335,293.400 136.173 C 292.520 136.012,291.409 135.625,290.931 135.314 C 290.453 135.003,289.013 134.642,287.731 134.512 C 286.449 134.382,284.958 133.989,284.418 133.638 C 282.922 132.667,261.657 132.689,259.600 133.664 C 258.830 134.029,257.069 134.417,255.686 134.527 C 254.303 134.637,252.758 134.998,252.252 135.329 C 251.747 135.660,250.499 136.056,249.480 136.209 C 248.460 136.362,247.430 136.723,247.190 137.012 C 246.950 137.301,246.041 137.658,245.169 137.805 C 244.297 137.953,243.358 138.299,243.081 138.576 C 242.804 138.853,241.908 139.300,241.089 139.571 C 240.270 139.841,239.600 140.221,239.600 140.416 C 239.600 140.610,238.880 140.963,238.000 141.200 C 237.120 141.437,236.400 141.808,236.400 142.025 C 236.400 142.242,235.983 142.578,235.474 142.772 C 234.520 143.135,231.580 145.032,231.209 145.525 C 231.094 145.678,230.231 146.324,229.291 146.962 C 227.239 148.354,220.130 155.677,219.511 157.036 C 219.269 157.566,218.916 158.000,218.726 158.000 C 218.536 158.000,218.160 158.495,217.890 159.100 C 217.489 160.001,217.381 157.821,217.294 147.034 C 217.223 138.133,217.045 133.696,216.745 133.334 C 215.917 132.336,166.952 132.569,166.414 133.574 M133.120 133.680 C 133.876 134.436,133.812 315.726,133.055 316.354 C 132.660 316.682,125.760 316.778,107.955 316.703 L 83.400 316.600 83.297 225.400 C 83.241 175.240,83.280 133.975,83.385 133.700 C 83.656 132.987,132.408 132.968,133.120 133.680 M216.800 147.067 C 216.997 160.544,217.166 162.393,218.002 160.196 C 218.968 157.654,226.096 150.053,230.600 146.762 C 232.360 145.475,234.011 144.244,234.269 144.025 C 234.527 143.806,235.877 143.045,237.269 142.335 C 238.661 141.624,240.070 140.830,240.400 140.569 C 240.730 140.308,241.450 139.962,242.000 139.800 C 242.550 139.638,243.270 139.282,243.600 139.010 C 243.930 138.737,244.920 138.321,245.800 138.086 C 247.506 137.628,250.506 136.622,252.800 135.739 C 253.570 135.442,255.550 135.016,257.200 134.792 C 258.850 134.568,260.830 134.163,261.600 133.892 C 265.523 132.512,283.138 133.517,289.200 135.467 C 290.190 135.785,291.720 136.225,292.600 136.445 C 293.480 136.665,294.599 137.105,295.086 137.422 C 295.573 137.740,296.203 138.004,296.486 138.009 C 296.769 138.013,298.170 138.638,299.600 139.397 C 301.030 140.156,302.650 140.997,303.200 141.266 C 303.750 141.535,304.516 142.019,304.903 142.342 C 305.289 142.665,305.939 143.125,306.346 143.364 C 310.953 146.076,315.601 150.682,321.114 158.000 C 322.284 159.554,324.514 163.517,325.953 166.600 C 326.672 168.140,327.516 169.878,327.830 170.462 C 328.143 171.046,328.401 171.856,328.402 172.262 C 328.404 172.668,328.681 173.529,329.018 174.175 C 329.354 174.821,329.802 176.171,330.012 177.175 C 330.223 178.179,330.661 179.900,330.986 181.000 C 331.312 182.100,331.986 185.340,332.486 188.200 L 333.395 193.400 333.511 254.640 C 333.609 306.640,333.542 315.950,333.069 316.343 C 332.656 316.685,326.101 316.779,307.955 316.703 L 283.400 316.600 283.179 266.200 C 282.979 220.453,282.896 215.597,282.284 213.600 C 281.913 212.390,281.607 211.018,281.605 210.551 C 281.599 209.544,279.797 203.899,279.012 202.430 C 278.709 201.863,278.075 200.552,277.603 199.516 C 277.131 198.480,275.869 196.538,274.800 195.200 C 273.731 193.863,272.798 192.640,272.728 192.484 C 272.332 191.606,267.048 187.682,264.400 186.299 C 258.517 183.227,246.937 182.195,242.322 184.331 C 241.289 184.809,240.119 185.212,239.722 185.227 C 239.325 185.241,238.100 185.777,237.000 186.418 C 235.900 187.058,234.431 187.901,233.736 188.291 C 226.747 192.211,220.801 201.376,218.094 212.400 L 217.063 216.600 216.831 266.600 L 216.600 316.600 192.045 316.703 C 174.240 316.778,167.340 316.682,166.945 316.354 C 166.185 315.724,166.124 134.436,166.883 133.677 C 167.252 133.308,173.169 133.218,191.983 133.297 L 216.600 133.400 216.800 147.067 M-0.000 324.456 C -0.000 325.842,0.200 326.658,0.614 326.961 C 0.971 327.222,1.381 328.494,1.594 330.005 C 1.953 332.549,1.957 332.530,1.807 329.000 C 1.572 323.491,0.000 319.537,-0.000 324.456 M398.792 323.900 C 398.547 324.725,398.278 327.020,398.193 329.000 C 398.043 332.530,398.047 332.549,398.406 330.005 C 398.619 328.494,399.029 327.222,399.386 326.961 C 399.800 326.658,400.000 325.842,400.000 324.456 C 400.000 322.041,399.423 321.776,398.792 323.900 M2.018 333.726 C 2.008 334.346,2.191 335.210,2.425 335.647 C 2.659 336.084,3.102 337.557,3.410 338.921 C 3.978 341.439,5.205 345.222,6.159 347.400 C 8.644 353.074,10.592 356.923,12.253 359.441 C 12.994 360.564,13.600 361.618,13.600 361.784 C 13.600 361.949,14.005 362.580,14.500 363.187 C 14.995 363.793,15.670 364.694,16.000 365.190 C 16.800 366.391,18.543 368.670,20.015 370.441 C 21.321 372.013,28.390 379.041,30.000 380.368 C 31.380 381.506,33.729 383.280,34.810 384.000 C 35.306 384.330,36.207 385.005,36.813 385.500 C 37.420 385.995,38.051 386.400,38.216 386.400 C 38.382 386.400,39.436 387.006,40.559 387.747 C 43.121 389.437,47.704 391.751,53.000 394.028 C 54.867 394.831,58.776 396.070,61.079 396.590 C 62.443 396.898,63.916 397.341,64.353 397.575 C 64.790 397.809,65.654 397.992,66.274 397.982 C 67.923 397.957,64.987 396.863,61.827 396.326 C 60.521 396.104,59.081 395.679,58.627 395.381 C 58.172 395.084,57.038 394.719,56.108 394.570 C 55.177 394.422,54.214 394.057,53.967 393.761 C 53.721 393.464,52.863 393.100,52.060 392.953 C 51.257 392.805,50.171 392.350,49.646 391.942 C 49.121 391.534,48.430 391.200,48.109 391.200 C 47.789 391.200,47.069 390.840,46.509 390.400 C 45.950 389.960,45.254 389.600,44.964 389.600 C 44.673 389.600,43.772 389.150,42.962 388.600 C 42.151 388.050,41.243 387.600,40.944 387.600 C 40.645 387.600,40.400 387.422,40.400 387.205 C 40.400 386.988,39.815 386.566,39.100 386.267 C 38.385 385.968,37.553 385.426,37.251 385.062 C 36.949 384.698,36.544 384.400,36.351 384.400 C 36.158 384.400,35.640 384.085,35.200 383.700 C 34.760 383.315,34.054 382.699,33.630 382.330 C 33.207 381.962,32.479 381.456,32.012 381.207 C 30.055 380.159,19.841 369.945,18.793 367.988 C 18.544 367.521,17.993 366.748,17.570 366.270 C 15.887 364.369,15.600 363.986,15.600 363.649 C 15.600 363.456,15.302 363.051,14.938 362.749 C 14.574 362.447,14.032 361.615,13.733 360.900 C 13.434 360.185,13.012 359.600,12.795 359.600 C 12.578 359.600,12.400 359.355,12.400 359.056 C 12.400 358.757,11.950 357.849,11.400 357.038 C 10.850 356.228,10.400 355.327,10.400 355.036 C 10.400 354.746,10.040 354.050,9.600 353.491 C 9.160 352.931,8.800 352.211,8.800 351.891 C 8.800 351.570,8.466 350.879,8.058 350.354 C 7.650 349.829,7.195 348.743,7.047 347.940 C 6.900 347.137,6.536 346.279,6.239 346.033 C 5.943 345.786,5.578 344.823,5.430 343.892 C 5.281 342.962,4.916 341.828,4.619 341.373 C 4.321 340.919,3.896 339.479,3.674 338.173 C 3.137 335.013,2.043 332.077,2.018 333.726 M397.272 334.265 C 396.982 335.109,396.560 336.868,396.334 338.173 C 396.108 339.479,395.679 340.919,395.381 341.373 C 395.084 341.828,394.719 342.962,394.570 343.892 C 394.422 344.823,394.057 345.786,393.761 346.033 C 393.464 346.279,393.100 347.137,392.953 347.940 C 392.805 348.743,392.350 349.829,391.942 350.354 C 391.534 350.879,391.200 351.570,391.200 351.891 C 391.200 352.211,390.840 352.931,390.400 353.491 C 389.960 354.050,389.600 354.746,389.600 355.036 C 389.600 355.327,389.150 356.228,388.600 357.038 C 388.050 357.849,387.600 358.757,387.600 359.056 C 387.600 359.355,387.422 359.600,387.205 359.600 C 386.988 359.600,386.566 360.185,386.267 360.900 C 385.968 361.615,385.426 362.447,385.062 362.749 C 384.698 363.051,384.400 363.456,384.400 363.649 C 384.400 363.842,384.040 364.405,383.600 364.900 C 382.030 366.666,381.655 367.151,381.207 367.988 C 380.029 370.189,371.109 378.973,367.000 381.979 C 366.120 382.623,365.085 383.431,364.700 383.775 C 364.315 384.119,363.842 384.400,363.649 384.400 C 363.456 384.400,363.051 384.698,362.749 385.062 C 362.447 385.426,361.615 385.968,360.900 386.267 C 360.185 386.566,359.600 386.988,359.600 387.205 C 359.600 387.422,359.355 387.600,359.056 387.600 C 358.757 387.600,357.849 388.050,357.038 388.600 C 356.228 389.150,355.327 389.600,355.036 389.600 C 354.746 389.600,354.050 389.960,353.491 390.400 C 352.931 390.840,352.211 391.200,351.891 391.200 C 351.570 391.200,350.879 391.534,350.354 391.942 C 349.829 392.350,348.743 392.805,347.940 392.953 C 347.137 393.100,346.279 393.464,346.033 393.761 C 345.786 394.057,344.823 394.422,343.892 394.570 C 342.962 394.719,341.815 395.093,341.344 395.401 C 340.873 395.709,339.523 396.080,338.344 396.226 C 337.165 396.372,335.782 396.754,335.270 397.075 C 334.721 397.419,332.508 397.803,329.870 398.013 C 325.164 398.388,322.400 398.982,322.400 399.619 C 322.400 400.275,326.459 400.072,326.957 399.391 C 327.256 398.982,328.649 398.642,331.187 398.359 C 333.268 398.127,335.302 397.760,335.706 397.543 C 336.111 397.327,337.557 396.898,338.921 396.590 C 341.224 396.070,345.133 394.831,347.000 394.028 C 352.296 391.751,356.879 389.437,359.441 387.747 C 360.564 387.006,361.611 386.400,361.768 386.400 C 362.022 386.400,364.196 384.875,365.476 383.800 C 365.738 383.580,366.601 382.950,367.394 382.400 C 371.164 379.785,378.937 372.011,382.392 367.400 C 383.051 366.520,383.728 365.620,383.895 365.400 C 385.650 363.094,386.400 362.007,386.400 361.768 C 386.400 361.611,387.006 360.564,387.747 359.441 C 389.437 356.879,391.751 352.296,394.028 347.000 C 394.831 345.133,396.070 341.224,396.590 338.921 C 396.898 337.557,397.352 336.064,397.599 335.601 C 397.847 335.139,397.993 334.303,397.925 333.745 C 397.812 332.827,397.749 332.877,397.272 334.265 M69.995 398.406 C 71.506 398.619,72.778 399.029,73.039 399.386 C 73.541 400.072,77.600 400.279,77.600 399.619 C 77.600 398.967,74.757 398.353,71.000 398.193 C 67.470 398.043,67.451 398.047,69.995 398.406 " stroke="none" fill="#575757" fill-rule="evenodd"></path><path id="path3" d="M72.243 0.633 C 72.093 1.023,72.182 1.206,72.475 1.108 C 73.073 0.909,73.402 -0.000,72.876 0.000 C 72.661 0.000,72.376 0.285,72.243 0.633 M326.892 0.475 C 326.979 0.736,327.264 1.021,327.525 1.108 C 327.818 1.206,327.907 1.023,327.757 0.633 C 327.478 -0.094,326.652 -0.245,326.892 0.475 M110.100 53.476 C 110.485 53.576,111.115 53.576,111.500 53.476 C 111.885 53.375,111.570 53.293,110.800 53.293 C 110.030 53.293,109.715 53.375,110.100 53.476 M0.400 72.400 C 0.083 72.596,-0.044 72.889,0.118 73.052 C 0.281 73.214,0.623 73.137,0.880 72.880 C 1.484 72.276,1.147 71.938,0.400 72.400 M398.892 72.475 C 399.091 73.073,400.000 73.402,400.000 72.876 C 400.000 72.661,399.715 72.376,399.367 72.243 C 398.977 72.093,398.794 72.182,398.892 72.475 M265.491 133.489 C 266.201 133.577,267.461 133.579,268.291 133.492 C 269.121 133.405,268.540 133.333,267.000 133.331 C 265.460 133.329,264.781 133.400,265.491 133.489 M133.397 225.000 C 133.397 275.160,133.443 295.621,133.500 270.468 C 133.557 245.315,133.557 204.275,133.500 179.268 C 133.443 154.261,133.397 174.840,133.397 225.000 M166.597 225.000 C 166.597 275.160,166.643 295.621,166.700 270.468 C 166.757 245.315,166.757 204.275,166.700 179.268 C 166.643 154.261,166.597 174.840,166.597 225.000 M226.386 150.300 L 224.200 152.600 226.500 150.414 C 227.765 149.211,228.800 148.176,228.800 148.114 C 228.800 147.817,228.418 148.163,226.386 150.300 M333.395 256.600 C 333.395 289.380,333.442 302.731,333.500 286.269 C 333.558 269.806,333.558 242.986,333.500 226.669 C 333.442 210.351,333.395 223.820,333.395 256.600 M0.000 327.124 C 0.000 327.339,0.285 327.624,0.633 327.757 C 1.023 327.907,1.206 327.818,1.108 327.525 C 0.909 326.927,0.000 326.598,0.000 327.124 M399.067 327.067 C 398.581 327.553,398.790 327.979,399.400 327.745 C 399.730 327.618,400.000 327.354,400.000 327.157 C 400.000 326.738,399.449 326.684,399.067 327.067 M72.243 399.367 C 72.376 399.715,72.661 400.000,72.876 400.000 C 73.402 400.000,73.073 399.091,72.475 398.892 C 72.182 398.794,72.093 398.977,72.243 399.367 M327.067 399.067 C 326.684 399.449,326.738 400.000,327.157 400.000 C 327.354 400.000,327.618 399.730,327.745 399.400 C 327.979 398.790,327.553 398.581,327.067 399.067 " stroke="none" fill="#747474" fill-rule="evenodd"></path><path id="path4" d="M69.342 0.553 C 69.090 0.841,67.700 1.187,66.253 1.322 C 64.806 1.457,63.122 1.822,62.511 2.132 C 61.900 2.442,60.500 2.825,59.400 2.984 C 58.300 3.142,57.130 3.505,56.800 3.791 C 56.470 4.077,55.570 4.434,54.800 4.584 C 54.030 4.734,52.680 5.189,51.800 5.594 C 50.920 6.000,49.750 6.526,49.200 6.763 C 48.650 7.000,47.930 7.356,47.600 7.554 C 47.270 7.752,46.550 8.112,46.000 8.354 C 45.450 8.596,44.730 8.946,44.400 9.132 C 44.070 9.319,43.317 9.725,42.727 10.035 C 36.399 13.364,30.354 17.962,24.158 24.158 C 17.962 30.354,13.364 36.399,10.035 42.727 C 9.725 43.317,9.319 44.070,9.132 44.400 C 8.946 44.730,8.596 45.450,8.354 46.000 C 8.112 46.550,7.752 47.270,7.554 47.600 C 7.356 47.930,7.001 48.650,6.764 49.200 C 6.527 49.750,6.011 50.830,5.616 51.600 C 5.221 52.370,4.772 53.755,4.618 54.677 C 4.464 55.599,4.097 56.553,3.803 56.797 C 3.510 57.041,3.143 58.176,2.988 59.320 C 2.833 60.464,2.450 61.900,2.137 62.511 C 1.824 63.122,1.458 64.802,1.323 66.244 C 1.188 67.685,0.836 69.107,0.539 69.404 C -0.158 70.101,-0.191 72.529,0.500 72.304 C 0.775 72.214,1.139 71.074,1.309 69.770 C 1.479 68.467,1.891 66.320,2.225 65.000 C 2.559 63.680,3.003 61.790,3.212 60.800 C 3.421 59.810,3.846 58.370,4.155 57.600 C 4.464 56.830,5.297 54.670,6.006 52.800 C 6.715 50.930,7.544 49.045,7.847 48.611 C 8.151 48.177,8.400 47.591,8.400 47.308 C 8.400 47.025,9.345 45.175,10.500 43.196 C 11.655 41.218,12.875 39.104,13.210 38.500 C 17.284 31.160,31.160 17.284,38.500 13.210 C 39.104 12.875,41.218 11.655,43.196 10.500 C 45.175 9.345,47.025 8.400,47.308 8.400 C 47.591 8.400,48.177 8.151,48.611 7.847 C 49.045 7.544,50.930 6.715,52.800 6.006 C 54.670 5.297,56.830 4.464,57.600 4.155 C 58.370 3.846,59.810 3.421,60.800 3.212 C 61.790 3.003,63.680 2.559,65.000 2.225 C 66.320 1.891,68.467 1.479,69.770 1.309 C 71.074 1.139,72.214 0.775,72.304 0.500 C 72.526 -0.183,69.946 -0.136,69.342 0.553 M327.696 0.500 C 327.786 0.775,328.926 1.139,330.230 1.309 C 331.533 1.479,333.680 1.891,335.000 2.225 C 336.320 2.559,338.210 3.003,339.200 3.212 C 340.190 3.421,341.630 3.846,342.400 4.155 C 343.170 4.464,345.330 5.297,347.200 6.006 C 349.070 6.715,350.955 7.544,351.389 7.847 C 351.823 8.151,352.409 8.400,352.692 8.400 C 352.975 8.400,354.825 9.345,356.804 10.500 C 358.782 11.655,360.896 12.875,361.500 13.210 C 368.840 17.284,382.716 31.160,386.790 38.500 C 387.125 39.104,388.345 41.218,389.500 43.196 C 390.655 45.175,391.600 47.025,391.600 47.308 C 391.600 47.591,391.849 48.177,392.153 48.611 C 392.456 49.045,393.285 50.930,393.994 52.800 C 394.703 54.670,395.536 56.830,395.845 57.600 C 396.154 58.370,396.579 59.810,396.788 60.800 C 396.997 61.790,397.441 63.680,397.775 65.000 C 398.109 66.320,398.521 68.467,398.691 69.770 C 398.861 71.074,399.225 72.214,399.500 72.304 C 400.191 72.529,400.158 70.101,399.461 69.404 C 399.164 69.107,398.812 67.685,398.677 66.244 C 398.542 64.802,398.176 63.122,397.863 62.511 C 397.550 61.900,397.167 60.464,397.012 59.320 C 396.857 58.176,396.490 57.041,396.197 56.797 C 395.903 56.553,395.536 55.599,395.382 54.677 C 395.228 53.755,394.779 52.370,394.384 51.600 C 393.989 50.830,393.473 49.750,393.236 49.200 C 392.999 48.650,392.642 47.930,392.442 47.600 C 392.241 47.270,391.506 45.830,390.808 44.400 C 384.011 30.476,369.524 15.989,355.600 9.192 C 354.170 8.494,352.730 7.759,352.400 7.558 C 352.070 7.358,351.350 7.001,350.800 6.764 C 350.250 6.527,349.170 6.011,348.400 5.616 C 347.630 5.221,346.245 4.772,345.323 4.618 C 344.401 4.464,343.447 4.097,343.203 3.803 C 342.959 3.510,341.824 3.143,340.680 2.988 C 339.536 2.833,338.100 2.450,337.489 2.137 C 336.878 1.824,335.198 1.458,333.756 1.323 C 332.315 1.188,330.893 0.836,330.596 0.539 C 329.899 -0.158,327.471 -0.191,327.696 0.500 M104.800 53.605 C 82.795 56.723,72.110 81.387,84.704 99.995 C 86.496 102.643,92.973 108.400,94.160 108.400 C 94.334 108.400,94.954 108.738,95.538 109.150 C 96.122 109.563,97.187 110.028,97.904 110.183 C 98.621 110.338,99.791 110.764,100.504 111.130 C 102.736 112.274,113.864 112.083,117.000 110.847 C 126.909 106.941,131.688 102.306,135.792 92.624 C 137.679 88.170,137.679 77.430,135.792 72.976 C 130.038 59.399,117.818 51.761,104.800 53.605 M115.400 54.977 C 117.160 55.372,118.870 55.922,119.200 56.200 C 119.530 56.478,120.250 56.841,120.800 57.008 C 121.350 57.174,122.229 57.645,122.754 58.055 C 123.279 58.465,123.954 58.800,124.254 58.800 C 124.554 58.800,124.800 58.937,124.800 59.104 C 124.800 59.272,125.754 60.170,126.921 61.101 C 128.087 62.031,129.572 63.529,130.221 64.428 C 130.869 65.328,131.693 66.365,132.050 66.732 C 132.408 67.099,132.834 67.850,132.998 68.400 C 133.161 68.950,133.529 69.670,133.816 70.000 C 134.103 70.330,134.472 71.140,134.636 71.800 C 134.801 72.460,135.283 73.787,135.708 74.748 C 136.891 77.427,136.846 88.277,135.640 91.003 C 135.178 92.047,134.800 93.215,134.800 93.597 C 134.800 93.979,134.440 94.750,134.000 95.309 C 133.560 95.869,133.200 96.480,133.200 96.668 C 133.200 98.673,123.965 108.000,121.980 108.000 C 121.730 108.000,121.069 108.360,120.509 108.800 C 119.950 109.240,119.111 109.604,118.646 109.609 C 118.181 109.614,116.990 109.993,116.000 110.452 C 113.645 111.543,102.779 111.716,101.160 110.688 C 100.632 110.353,99.585 109.950,98.834 109.793 C 96.115 109.225,91.175 106.182,88.296 103.304 C 86.207 101.214,83.600 97.702,83.600 96.976 C 83.600 96.719,83.240 96.050,82.800 95.491 C 82.360 94.931,82.000 94.177,82.000 93.815 C 82.000 93.453,81.605 92.311,81.122 91.278 C 79.804 88.457,79.809 76.625,81.130 74.206 C 81.608 73.329,82.000 72.232,82.000 71.767 C 82.000 71.303,82.360 70.507,82.800 70.000 C 83.240 69.493,83.600 68.854,83.600 68.580 C 83.600 67.823,87.742 62.692,89.330 61.481 C 90.100 60.893,91.042 60.094,91.423 59.706 C 92.802 58.301,98.144 55.704,100.634 55.229 C 101.715 55.023,103.050 54.667,103.600 54.439 C 105.046 53.840,111.676 54.142,115.400 54.977 M83.683 133.677 C 82.924 134.436,82.985 315.724,83.745 316.354 C 84.140 316.682,90.988 316.778,108.645 316.703 L 133.000 316.600 133.000 225.000 L 133.000 133.400 108.583 133.297 C 89.924 133.218,84.052 133.308,83.683 133.677 M166.985 133.700 C 166.880 133.975,166.841 175.240,166.897 225.400 L 167.000 316.600 191.355 316.703 C 208.659 316.776,215.864 316.679,216.242 316.365 C 216.678 316.003,216.794 306.871,216.887 265.662 C 216.993 218.708,217.047 215.229,217.720 212.800 C 220.873 201.407,223.620 196.665,230.728 190.345 C 232.772 188.528,238.168 185.395,239.904 185.018 C 240.621 184.862,241.791 184.434,242.504 184.067 C 246.233 182.147,258.699 183.314,264.394 186.117 C 267.835 187.810,274.800 193.643,274.800 194.832 C 274.800 195.000,275.220 195.647,275.733 196.269 C 277.385 198.272,279.539 202.757,280.693 206.600 C 283.177 214.871,282.982 210.128,283.110 265.462 C 283.205 306.836,283.322 316.003,283.758 316.365 C 284.136 316.679,291.340 316.776,308.645 316.703 L 333.000 316.600 333.121 256.000 C 333.251 190.855,333.238 190.383,331.138 182.200 C 330.912 181.320,330.479 179.505,330.175 178.167 C 329.871 176.829,329.348 175.209,329.013 174.567 C 328.679 173.925,328.404 173.150,328.402 172.844 C 328.400 172.328,327.877 171.067,325.975 167.000 C 325.564 166.120,325.039 164.950,324.808 164.400 C 324.412 163.455,322.429 160.241,319.840 156.346 C 317.112 152.242,307.966 144.102,303.001 141.358 C 300.176 139.797,297.368 138.400,297.055 138.400 C 296.853 138.400,295.948 138.056,295.044 137.637 C 287.656 134.205,268.632 132.091,262.171 133.983 C 261.307 134.236,259.070 134.688,257.200 134.986 C 253.943 135.506,252.481 135.917,247.600 137.681 C 245.301 138.512,242.365 139.773,241.000 140.516 C 240.560 140.756,239.480 141.301,238.600 141.728 C 231.978 144.939,220.847 155.013,218.019 160.354 C 217.008 162.263,216.812 160.134,216.806 147.180 C 216.802 137.594,216.673 134.033,216.320 133.680 C 215.608 132.968,167.256 132.987,166.985 133.700 M132.800 225.003 L 132.800 316.406 108.300 316.303 L 83.800 316.200 83.697 225.400 C 83.641 175.460,83.680 134.375,83.785 134.100 C 83.934 133.708,89.225 133.600,108.387 133.600 L 132.800 133.600 132.800 225.003 M216.305 147.366 C 216.408 160.566,216.542 162.000,217.669 162.000 C 217.874 162.000,218.291 161.401,218.597 160.668 C 218.903 159.936,219.434 159.104,219.777 158.819 C 220.120 158.535,220.400 158.125,220.400 157.909 C 220.400 157.416,230.469 147.214,230.964 147.206 C 231.164 147.203,232.334 146.439,233.564 145.510 C 236.108 143.586,244.959 138.997,246.906 138.591 C 247.618 138.443,248.564 138.092,249.009 137.811 C 249.454 137.531,250.624 137.167,251.609 137.003 C 252.594 136.839,253.887 136.456,254.483 136.151 C 255.079 135.846,257.183 135.430,259.159 135.225 C 261.136 135.021,263.109 134.663,263.545 134.429 C 264.655 133.835,276.642 133.740,278.400 134.311 C 279.170 134.561,281.669 134.965,283.954 135.209 C 286.238 135.453,288.488 135.893,288.954 136.188 C 289.419 136.482,290.610 136.850,291.600 137.005 C 292.590 137.160,293.670 137.517,294.000 137.799 C 294.330 138.081,295.230 138.444,296.000 138.608 C 296.770 138.771,297.829 139.241,298.354 139.652 C 298.879 140.063,299.633 140.400,300.030 140.400 C 300.428 140.400,300.866 140.583,301.004 140.806 C 301.141 141.029,301.917 141.574,302.727 142.017 C 303.537 142.460,304.662 143.132,305.226 143.511 C 305.790 143.890,306.811 144.567,307.493 145.016 C 311.162 147.427,315.273 151.498,318.786 156.200 C 319.444 157.080,320.256 158.085,320.591 158.434 C 320.926 158.782,321.203 159.232,321.207 159.434 C 321.214 159.783,323.151 162.883,323.976 163.866 C 324.192 164.122,324.492 164.842,324.645 165.466 C 324.797 166.090,325.255 167.029,325.661 167.554 C 326.067 168.079,326.400 168.779,326.400 169.110 C 326.400 169.441,326.733 170.452,327.140 171.356 C 328.300 173.931,329.234 176.817,329.630 179.043 C 329.830 180.167,330.246 181.697,330.556 182.443 C 330.866 183.189,331.243 185.420,331.395 187.400 C 331.547 189.380,331.925 192.136,332.236 193.525 C 332.708 195.637,332.800 205.878,332.800 256.228 L 332.800 316.406 308.300 316.303 L 283.800 316.200 283.600 264.600 C 283.414 216.537,283.352 212.898,282.700 211.513 C 282.315 210.695,281.996 209.435,281.991 208.713 C 281.986 207.991,281.626 206.615,281.191 205.656 C 280.756 204.697,280.400 203.687,280.400 203.410 C 280.400 203.134,280.067 202.479,279.661 201.954 C 279.255 201.429,278.797 200.487,278.643 199.860 C 278.410 198.906,277.155 196.749,276.398 196.000 C 276.286 195.890,275.668 195.080,275.023 194.200 C 272.770 191.127,268.754 187.680,265.600 186.112 C 265.050 185.839,264.330 185.453,264.000 185.254 C 259.149 182.337,245.377 181.603,240.865 184.021 C 240.066 184.450,239.015 184.800,238.530 184.800 C 238.044 184.800,237.525 184.998,237.375 185.241 C 237.225 185.483,236.539 185.943,235.851 186.263 C 233.128 187.528,231.276 188.899,227.831 192.200 C 225.824 194.123,221.600 199.600,221.600 200.278 C 221.600 200.449,221.132 201.581,220.560 202.794 C 219.987 204.007,219.264 205.540,218.953 206.200 C 218.641 206.860,218.220 208.427,218.017 209.681 C 217.814 210.936,217.412 212.376,217.124 212.881 C 216.702 213.620,216.561 223.811,216.400 265.000 L 216.200 316.200 191.700 316.303 L 167.200 316.406 167.200 225.000 L 167.200 133.594 191.700 133.697 L 216.200 133.800 216.305 147.366 M0.000 328.795 C 0.000 329.489,0.243 330.300,0.539 330.596 C 0.836 330.893,1.188 332.315,1.323 333.756 C 1.458 335.198,1.822 336.878,2.132 337.489 C 2.442 338.100,2.825 339.500,2.984 340.600 C 3.142 341.700,3.505 342.870,3.791 343.200 C 4.077 343.530,4.434 344.430,4.584 345.200 C 4.734 345.970,5.189 347.320,5.594 348.200 C 6.000 349.080,6.526 350.250,6.763 350.800 C 7.000 351.350,7.356 352.070,7.554 352.400 C 7.752 352.730,8.112 353.450,8.354 354.000 C 8.596 354.550,8.946 355.270,9.132 355.600 C 9.319 355.930,9.725 356.683,10.035 357.273 C 13.364 363.601,17.962 369.646,24.158 375.842 C 30.354 382.038,36.399 386.636,42.727 389.965 C 43.317 390.275,44.070 390.681,44.400 390.868 C 44.730 391.054,45.450 391.404,46.000 391.646 C 46.550 391.888,47.270 392.248,47.600 392.446 C 47.930 392.644,48.650 392.999,49.200 393.236 C 49.750 393.473,50.830 393.989,51.600 394.384 C 52.370 394.779,53.755 395.228,54.677 395.382 C 55.599 395.536,56.553 395.903,56.797 396.197 C 57.041 396.490,58.176 396.857,59.320 397.012 C 60.464 397.167,61.900 397.550,62.511 397.863 C 63.122 398.176,64.802 398.542,66.244 398.677 C 67.685 398.812,69.107 399.164,69.404 399.461 C 70.101 400.158,72.529 400.191,72.304 399.500 C 72.214 399.225,71.074 398.861,69.770 398.691 C 68.467 398.521,66.320 398.109,65.000 397.775 C 63.680 397.441,61.790 396.997,60.800 396.788 C 59.810 396.579,58.370 396.154,57.600 395.845 C 56.830 395.536,54.670 394.703,52.800 393.994 C 50.930 393.285,49.045 392.456,48.611 392.153 C 48.177 391.849,47.591 391.600,47.308 391.600 C 47.025 391.600,45.175 390.655,43.196 389.500 C 41.218 388.345,39.104 387.125,38.500 386.790 C 31.160 382.716,17.284 368.840,13.210 361.500 C 12.875 360.896,11.655 358.782,10.500 356.804 C 9.345 354.825,8.400 352.975,8.400 352.692 C 8.400 352.409,8.151 351.823,7.847 351.389 C 7.544 350.955,6.715 349.070,6.006 347.200 C 5.297 345.330,4.464 343.170,4.155 342.400 C 3.846 341.630,3.421 340.190,3.212 339.200 C 3.003 338.210,2.559 336.320,2.225 335.000 C 1.891 333.680,1.479 331.533,1.309 330.230 C 0.976 327.678,0.000 326.608,0.000 328.795 M399.034 327.945 C 398.917 328.134,398.648 329.811,398.437 331.671 C 398.226 333.530,397.785 335.760,397.458 336.626 C 397.131 337.492,396.748 338.893,396.606 339.740 C 396.465 340.587,396.107 341.847,395.811 342.540 C 395.515 343.233,394.695 345.330,393.989 347.200 C 393.283 349.070,392.456 350.955,392.153 351.389 C 391.849 351.823,391.600 352.409,391.600 352.692 C 391.600 352.975,390.655 354.825,389.500 356.804 C 388.345 358.782,387.125 360.896,386.790 361.500 C 382.716 368.840,368.840 382.716,361.500 386.790 C 360.896 387.125,358.782 388.345,356.804 389.500 C 354.825 390.655,352.975 391.600,352.692 391.600 C 352.409 391.600,351.823 391.849,351.389 392.153 C 350.955 392.456,349.070 393.285,347.200 393.994 C 345.330 394.703,343.170 395.536,342.400 395.845 C 341.630 396.154,340.190 396.579,339.200 396.788 C 338.210 396.997,336.320 397.441,335.000 397.775 C 333.680 398.109,331.533 398.521,330.230 398.691 C 328.926 398.861,327.786 399.225,327.696 399.500 C 327.471 400.191,329.899 400.158,330.596 399.461 C 330.893 399.164,332.315 398.812,333.756 398.677 C 335.198 398.542,336.878 398.176,337.489 397.863 C 338.100 397.550,339.536 397.167,340.680 397.012 C 341.824 396.857,342.959 396.490,343.203 396.197 C 343.447 395.903,344.401 395.536,345.323 395.382 C 346.245 395.228,347.630 394.779,348.400 394.384 C 349.170 393.989,350.250 393.473,350.800 393.236 C 351.350 392.999,352.070 392.642,352.400 392.442 C 352.730 392.241,354.170 391.506,355.600 390.808 C 368.869 384.331,382.968 370.573,389.965 357.273 C 390.275 356.683,390.681 355.930,390.868 355.600 C 391.054 355.270,391.404 354.550,391.646 354.000 C 391.888 353.450,392.248 352.730,392.446 352.400 C 392.644 352.070,392.999 351.350,393.236 350.800 C 393.473 350.250,393.989 349.170,394.384 348.400 C 394.779 347.630,395.228 346.245,395.382 345.323 C 395.536 344.401,395.903 343.447,396.197 343.203 C 396.490 342.959,396.857 341.824,397.012 340.680 C 397.167 339.536,397.550 338.100,397.863 337.489 C 398.176 336.878,398.542 335.198,398.677 333.756 C 398.812 332.315,399.164 330.893,399.461 330.596 C 400.071 329.986,400.200 327.600,399.624 327.600 C 399.417 327.600,399.151 327.755,399.034 327.945 " stroke="none" fill="#7c7c7c" fill-rule="evenodd"></path></g></svg>