<?xml version="1.0" encoding="UTF-8"?>
<svg xmlns="http://www.w3.org/2000/svg" xmlns:xlink="http://www.w3.org/1999/xlink" width="16px" height="16px" viewBox="0 0 16 16" version="1.1">
<g id="surface1">
<path style=" stroke:none;fill-rule:evenodd;fill:rgb(98.431373%,98.431373%,98.431373%);fill-opacity:1;" d="M 0 1.390625 C 0 2.292969 0.00390625 2.785156 0.015625 2.785156 C 0.0351562 2.785156 0.0429688 2.75 0.0546875 2.625 C 0.0625 2.578125 0.0742188 2.519531 0.0859375 2.496094 C 0.0976562 2.476562 0.113281 2.417969 0.121094 2.371094 C 0.125 2.328125 0.140625 2.28125 0.152344 2.273438 C 0.164062 2.261719 0.179688 2.222656 0.183594 2.1875 C 0.191406 2.148438 0.207031 2.09375 0.226562 2.0625 C 0.242188 2.03125 0.261719 1.988281 0.269531 1.96875 C 0.28125 1.945312 0.292969 1.917969 0.300781 1.902344 C 0.308594 1.890625 0.324219 1.863281 0.335938 1.839844 C 0.34375 1.816406 0.359375 1.789062 0.367188 1.777344 C 0.371094 1.761719 0.390625 1.734375 0.402344 1.710938 C 0.535156 1.457031 0.71875 1.214844 0.964844 0.964844 C 1.214844 0.71875 1.457031 0.535156 1.710938 0.402344 C 1.734375 0.390625 1.761719 0.371094 1.777344 0.367188 C 1.789062 0.359375 1.816406 0.34375 1.839844 0.335938 C 1.863281 0.324219 1.890625 0.308594 1.902344 0.300781 C 1.917969 0.292969 1.945312 0.28125 1.96875 0.269531 C 1.988281 0.261719 2.035156 0.238281 2.070312 0.222656 C 2.105469 0.207031 2.160156 0.1875 2.191406 0.183594 C 2.222656 0.175781 2.257812 0.164062 2.273438 0.152344 C 2.285156 0.140625 2.332031 0.125 2.375 0.121094 C 2.421875 0.113281 2.476562 0.0976562 2.496094 0.0859375 C 2.519531 0.0742188 2.578125 0.0625 2.625 0.0546875 C 2.75 0.0429688 2.785156 0.0351562 2.785156 0.015625 C 2.785156 0.00390625 2.292969 0 1.390625 0 L 0 0 L 0 1.390625 M 13.214844 0.015625 C 13.214844 0.0351562 13.25 0.0429688 13.375 0.0546875 C 13.421875 0.0625 13.480469 0.0742188 13.503906 0.0859375 C 13.523438 0.0976562 13.582031 0.113281 13.628906 0.121094 C 13.671875 0.125 13.71875 0.140625 13.726562 0.152344 C 13.738281 0.164062 13.777344 0.179688 13.8125 0.183594 C 13.851562 0.191406 13.90625 0.207031 13.9375 0.226562 C 13.96875 0.242188 14.011719 0.261719 14.03125 0.269531 C 14.054688 0.28125 14.082031 0.292969 14.097656 0.300781 C 14.109375 0.308594 14.167969 0.339844 14.222656 0.367188 C 14.78125 0.640625 15.359375 1.21875 15.632812 1.777344 C 15.660156 1.832031 15.691406 1.890625 15.699219 1.902344 C 15.707031 1.917969 15.71875 1.945312 15.730469 1.96875 C 15.738281 1.988281 15.757812 2.03125 15.773438 2.0625 C 15.792969 2.09375 15.808594 2.148438 15.816406 2.1875 C 15.820312 2.222656 15.835938 2.261719 15.847656 2.273438 C 15.859375 2.28125 15.875 2.328125 15.878906 2.371094 C 15.886719 2.417969 15.902344 2.476562 15.914062 2.496094 C 15.925781 2.519531 15.9375 2.578125 15.945312 2.625 C 15.957031 2.75 15.964844 2.785156 15.984375 2.785156 C 15.996094 2.785156 16 2.292969 16 1.390625 L 16 0 L 14.609375 0 C 13.707031 0 13.214844 0.00390625 13.214844 0.015625 M 4.144531 2.175781 C 4.121094 2.1875 4.070312 2.199219 4.023438 2.210938 C 3.925781 2.226562 3.710938 2.332031 3.65625 2.386719 C 3.640625 2.402344 3.605469 2.4375 3.574219 2.460938 C 3.507812 2.507812 3.34375 2.714844 3.34375 2.742188 C 3.34375 2.753906 3.328125 2.78125 3.3125 2.800781 C 3.292969 2.820312 3.28125 2.851562 3.28125 2.871094 C 3.28125 2.890625 3.265625 2.933594 3.246094 2.96875 C 3.191406 3.066406 3.191406 3.539062 3.246094 3.652344 C 3.265625 3.691406 3.28125 3.738281 3.28125 3.753906 C 3.28125 3.765625 3.292969 3.796875 3.3125 3.820312 C 3.328125 3.84375 3.34375 3.867188 3.34375 3.878906 C 3.34375 3.90625 3.449219 4.046875 3.53125 4.132812 C 3.648438 4.246094 3.84375 4.367188 3.953125 4.390625 C 3.984375 4.398438 4.023438 4.414062 4.046875 4.425781 C 4.109375 4.46875 4.546875 4.460938 4.640625 4.417969 C 4.679688 4.398438 4.726562 4.382812 4.746094 4.382812 C 4.765625 4.382812 4.796875 4.371094 4.820312 4.351562 C 4.84375 4.335938 4.871094 4.320312 4.878906 4.320312 C 4.957031 4.320312 5.328125 3.945312 5.328125 3.867188 C 5.328125 3.859375 5.34375 3.835938 5.359375 3.8125 C 5.378906 3.789062 5.390625 3.757812 5.390625 3.742188 C 5.390625 3.730469 5.40625 3.683594 5.425781 3.640625 C 5.472656 3.53125 5.476562 3.097656 5.429688 2.988281 C 5.410156 2.953125 5.390625 2.898438 5.386719 2.871094 C 5.378906 2.84375 5.363281 2.8125 5.351562 2.800781 C 5.339844 2.785156 5.328125 2.757812 5.320312 2.734375 C 5.3125 2.714844 5.296875 2.683594 5.28125 2.667969 C 5.269531 2.65625 5.234375 2.613281 5.207031 2.578125 C 5.183594 2.542969 5.125 2.480469 5.078125 2.445312 C 5.03125 2.40625 4.992188 2.371094 4.992188 2.363281 C 4.992188 2.359375 4.980469 2.351562 4.96875 2.351562 C 4.957031 2.351562 4.929688 2.339844 4.910156 2.320312 C 4.890625 2.304688 4.855469 2.285156 4.832031 2.28125 C 4.808594 2.273438 4.78125 2.257812 4.769531 2.246094 C 4.699219 2.191406 4.238281 2.140625 4.144531 2.175781 M 3.351562 5.363281 C 3.347656 5.375 3.34375 7.019531 3.347656 9.015625 L 3.351562 12.648438 L 5.3125 12.65625 L 5.3125 5.34375 L 4.335938 5.34375 C 3.570312 5.34375 3.355469 5.347656 3.351562 5.363281 M 6.6875 9 L 6.6875 12.65625 L 8.648438 12.648438 L 8.65625 10.601562 C 8.664062 8.953125 8.667969 8.542969 8.683594 8.515625 C 8.695312 8.496094 8.710938 8.4375 8.71875 8.386719 C 8.730469 8.335938 8.746094 8.273438 8.757812 8.246094 C 8.769531 8.222656 8.800781 8.160156 8.824219 8.113281 C 8.84375 8.0625 8.863281 8.019531 8.863281 8.011719 C 8.863281 7.984375 9.03125 7.765625 9.113281 7.6875 C 9.25 7.554688 9.324219 7.5 9.433594 7.449219 C 9.460938 7.4375 9.488281 7.417969 9.496094 7.410156 C 9.5 7.398438 9.523438 7.390625 9.542969 7.390625 C 9.5625 7.390625 9.601562 7.378906 9.632812 7.359375 C 9.816406 7.265625 10.367188 7.292969 10.558594 7.410156 C 10.574219 7.417969 10.601562 7.433594 10.625 7.445312 C 10.75 7.507812 10.910156 7.644531 11 7.769531 C 11.027344 7.804688 11.050781 7.835938 11.054688 7.839844 C 11.085938 7.871094 11.136719 7.957031 11.144531 7.996094 C 11.152344 8.019531 11.171875 8.058594 11.1875 8.078125 C 11.203125 8.097656 11.214844 8.125 11.214844 8.136719 C 11.214844 8.148438 11.230469 8.1875 11.246094 8.226562 C 11.265625 8.265625 11.28125 8.320312 11.28125 8.347656 C 11.28125 8.378906 11.292969 8.429688 11.308594 8.460938 C 11.335938 8.515625 11.335938 8.660156 11.34375 10.585938 L 11.351562 12.648438 L 13.3125 12.65625 L 13.3125 10.25 C 13.3125 8.234375 13.308594 7.824219 13.289062 7.742188 C 13.277344 7.683594 13.261719 7.574219 13.253906 7.496094 C 13.25 7.417969 13.234375 7.328125 13.222656 7.296875 C 13.210938 7.269531 13.191406 7.207031 13.183594 7.160156 C 13.167969 7.074219 13.132812 6.957031 13.085938 6.855469 C 13.070312 6.816406 13.054688 6.777344 13.054688 6.765625 C 13.054688 6.75 13.042969 6.722656 13.027344 6.703125 C 13.011719 6.679688 12.992188 6.644531 12.984375 6.617188 C 12.980469 6.59375 12.96875 6.566406 12.960938 6.554688 C 12.925781 6.515625 12.847656 6.390625 12.847656 6.378906 C 12.847656 6.371094 12.835938 6.351562 12.824219 6.335938 C 12.808594 6.324219 12.777344 6.28125 12.75 6.246094 C 12.609375 6.058594 12.445312 5.898438 12.300781 5.800781 C 12.273438 5.78125 12.230469 5.753906 12.210938 5.742188 C 12.1875 5.726562 12.140625 5.699219 12.109375 5.679688 C 12.078125 5.664062 12.046875 5.640625 12.039062 5.632812 C 12.035156 5.625 12.015625 5.617188 12 5.617188 C 11.984375 5.617188 11.957031 5.601562 11.933594 5.585938 C 11.914062 5.570312 11.871094 5.550781 11.839844 5.542969 C 11.808594 5.539062 11.773438 5.523438 11.761719 5.511719 C 11.746094 5.5 11.703125 5.488281 11.664062 5.480469 C 11.625 5.472656 11.578125 5.460938 11.558594 5.449219 C 11.539062 5.4375 11.449219 5.417969 11.359375 5.410156 C 11.265625 5.398438 11.167969 5.382812 11.136719 5.371094 C 11.066406 5.347656 10.585938 5.351562 10.542969 5.378906 C 10.523438 5.386719 10.445312 5.402344 10.367188 5.410156 C 10.289062 5.417969 10.203125 5.433594 10.179688 5.445312 C 10.15625 5.457031 10.105469 5.472656 10.0625 5.480469 C 10.023438 5.488281 9.976562 5.5 9.960938 5.511719 C 9.941406 5.523438 9.90625 5.539062 9.875 5.542969 C 9.796875 5.558594 9.445312 5.742188 9.34375 5.820312 C 9.292969 5.859375 9.246094 5.886719 9.238281 5.886719 C 9.21875 5.886719 8.816406 6.296875 8.816406 6.316406 C 8.816406 6.324219 8.804688 6.339844 8.792969 6.351562 C 8.777344 6.363281 8.757812 6.398438 8.742188 6.425781 C 8.730469 6.457031 8.714844 6.480469 8.707031 6.480469 C 8.660156 6.480469 8.65625 6.421875 8.652344 5.894531 L 8.648438 5.351562 L 6.6875 5.34375 L 6.6875 9 M 0 14.609375 L 0 16 L 1.390625 16 C 2.292969 16 2.785156 15.996094 2.785156 15.984375 C 2.785156 15.964844 2.75 15.957031 2.625 15.945312 C 2.578125 15.9375 2.519531 15.925781 2.496094 15.914062 C 2.476562 15.902344 2.417969 15.886719 2.371094 15.878906 C 2.328125 15.875 2.28125 15.859375 2.273438 15.847656 C 2.261719 15.835938 2.222656 15.820312 2.1875 15.816406 C 2.148438 15.808594 2.09375 15.792969 2.0625 15.773438 C 2.03125 15.757812 1.988281 15.738281 1.96875 15.730469 C 1.945312 15.71875 1.917969 15.707031 1.902344 15.699219 C 1.890625 15.691406 1.863281 15.675781 1.839844 15.664062 C 1.816406 15.65625 1.789062 15.640625 1.777344 15.632812 C 1.761719 15.628906 1.734375 15.609375 1.710938 15.597656 C 1.457031 15.464844 1.214844 15.28125 0.964844 15.035156 C 0.71875 14.785156 0.535156 14.542969 0.402344 14.289062 C 0.390625 14.265625 0.371094 14.238281 0.367188 14.222656 C 0.359375 14.210938 0.34375 14.183594 0.335938 14.160156 C 0.324219 14.136719 0.308594 14.109375 0.300781 14.097656 C 0.292969 14.082031 0.28125 14.054688 0.269531 14.03125 C 0.261719 14.011719 0.238281 13.964844 0.222656 13.929688 C 0.207031 13.894531 0.1875 13.839844 0.183594 13.808594 C 0.175781 13.777344 0.164062 13.742188 0.152344 13.726562 C 0.140625 13.714844 0.125 13.667969 0.121094 13.625 C 0.113281 13.578125 0.0976562 13.523438 0.0859375 13.503906 C 0.0742188 13.480469 0.0625 13.421875 0.0546875 13.375 C 0.0429688 13.25 0.0351562 13.214844 0.015625 13.214844 C 0.00390625 13.214844 0 13.707031 0 14.609375 M 15.960938 13.253906 C 15.957031 13.273438 15.949219 13.328125 15.945312 13.375 C 15.9375 13.421875 15.925781 13.480469 15.914062 13.503906 C 15.902344 13.523438 15.886719 13.582031 15.878906 13.628906 C 15.875 13.671875 15.859375 13.71875 15.847656 13.726562 C 15.835938 13.738281 15.820312 13.777344 15.816406 13.8125 C 15.808594 13.851562 15.792969 13.90625 15.773438 13.9375 C 15.757812 13.96875 15.738281 14.011719 15.730469 14.03125 C 15.71875 14.054688 15.707031 14.082031 15.699219 14.097656 C 15.691406 14.109375 15.675781 14.136719 15.664062 14.160156 C 15.65625 14.183594 15.640625 14.210938 15.632812 14.222656 C 15.628906 14.238281 15.609375 14.265625 15.597656 14.289062 C 15.464844 14.542969 15.28125 14.785156 15.035156 15.035156 C 14.761719 15.304688 14.503906 15.496094 14.222656 15.632812 C 14.167969 15.660156 14.109375 15.691406 14.097656 15.699219 C 14.082031 15.707031 14.054688 15.71875 14.03125 15.730469 C 14.011719 15.738281 13.96875 15.757812 13.9375 15.773438 C 13.90625 15.792969 13.851562 15.808594 13.8125 15.816406 C 13.777344 15.820312 13.738281 15.835938 13.726562 15.847656 C 13.71875 15.859375 13.671875 15.875 13.628906 15.878906 C 13.582031 15.886719 13.523438 15.902344 13.503906 15.914062 C 13.480469 15.925781 13.421875 15.9375 13.375 15.945312 C 13.25 15.957031 13.214844 15.964844 13.214844 15.984375 C 13.214844 15.996094 13.707031 16 14.609375 16 L 16 16 L 16 14.609375 C 16 13.328125 15.992188 13.09375 15.960938 13.253906 "/>
<path style=" stroke:none;fill-rule:evenodd;fill:rgb(1.568627%,1.568627%,1.568627%);fill-opacity:1;" d="M 3.101562 0.015625 C 3.09375 0.0429688 2.917969 0.078125 2.800781 0.0820312 C 2.742188 0.0820312 2.667969 0.09375 2.632812 0.105469 C 2.597656 0.121094 2.523438 0.136719 2.472656 0.148438 C 2.421875 0.15625 2.363281 0.171875 2.34375 0.183594 C 2.328125 0.195312 2.28125 0.210938 2.246094 0.21875 C 2.207031 0.222656 2.167969 0.238281 2.160156 0.25 C 2.148438 0.261719 2.113281 0.277344 2.082031 0.28125 C 2.050781 0.289062 2.007812 0.304688 1.984375 0.324219 C 1.964844 0.339844 1.9375 0.351562 1.925781 0.351562 C 1.910156 0.351562 1.882812 0.367188 1.859375 0.382812 C 1.839844 0.402344 1.808594 0.414062 1.796875 0.414062 C 1.785156 0.414062 1.75 0.433594 1.71875 0.457031 C 1.6875 0.476562 1.648438 0.496094 1.636719 0.496094 C 1.625 0.496094 1.617188 0.503906 1.617188 0.511719 C 1.617188 0.519531 1.59375 0.539062 1.5625 0.550781 C 1.535156 0.5625 1.503906 0.582031 1.488281 0.597656 C 1.476562 0.613281 1.460938 0.625 1.453125 0.625 C 1.445312 0.625 1.425781 0.636719 1.40625 0.652344 C 1.390625 0.667969 1.363281 0.691406 1.34375 0.707031 C 1.328125 0.722656 1.300781 0.742188 1.28125 0.75 C 1.203125 0.792969 0.792969 1.203125 0.75 1.28125 C 0.742188 1.300781 0.71875 1.332031 0.703125 1.347656 C 0.636719 1.425781 0.625 1.441406 0.625 1.453125 C 0.625 1.460938 0.613281 1.476562 0.597656 1.488281 C 0.582031 1.503906 0.5625 1.535156 0.550781 1.5625 C 0.539062 1.59375 0.519531 1.617188 0.511719 1.617188 C 0.503906 1.617188 0.496094 1.625 0.496094 1.636719 C 0.496094 1.648438 0.476562 1.6875 0.457031 1.71875 C 0.433594 1.75 0.414062 1.785156 0.414062 1.796875 C 0.414062 1.808594 0.402344 1.839844 0.382812 1.859375 C 0.367188 1.882812 0.351562 1.910156 0.351562 1.925781 C 0.351562 1.9375 0.339844 1.964844 0.324219 1.984375 C 0.304688 2.007812 0.289062 2.050781 0.28125 2.082031 C 0.277344 2.113281 0.261719 2.148438 0.25 2.160156 C 0.238281 2.167969 0.222656 2.207031 0.21875 2.246094 C 0.210938 2.28125 0.195312 2.328125 0.183594 2.347656 C 0.171875 2.363281 0.15625 2.417969 0.152344 2.464844 C 0.144531 2.511719 0.128906 2.570312 0.117188 2.589844 C 0.101562 2.609375 0.0859375 2.699219 0.078125 2.804688 C 0.0625 3.019531 0.0507812 3.070312 0.0234375 3.082031 C -0.0078125 3.09375 -0.0117188 12.890625 0.015625 12.898438 C 0.0429688 12.90625 0.078125 13.082031 0.0820312 13.199219 C 0.0820312 13.257812 0.09375 13.332031 0.105469 13.367188 C 0.121094 13.402344 0.136719 13.476562 0.148438 13.527344 C 0.15625 13.578125 0.171875 13.636719 0.183594 13.65625 C 0.195312 13.671875 0.210938 13.71875 0.21875 13.753906 C 0.222656 13.792969 0.238281 13.832031 0.25 13.839844 C 0.261719 13.851562 0.277344 13.886719 0.28125 13.917969 C 0.289062 13.949219 0.304688 13.992188 0.324219 14.015625 C 0.339844 14.035156 0.351562 14.0625 0.351562 14.074219 C 0.351562 14.089844 0.367188 14.117188 0.382812 14.140625 C 0.402344 14.160156 0.414062 14.191406 0.414062 14.203125 C 0.414062 14.214844 0.433594 14.25 0.457031 14.28125 C 0.476562 14.3125 0.496094 14.351562 0.496094 14.363281 C 0.496094 14.375 0.503906 14.382812 0.511719 14.382812 C 0.519531 14.382812 0.539062 14.40625 0.550781 14.4375 C 0.5625 14.464844 0.582031 14.496094 0.597656 14.511719 C 0.613281 14.523438 0.625 14.539062 0.625 14.546875 C 0.625 14.554688 0.636719 14.578125 0.65625 14.597656 C 0.71875 14.667969 0.734375 14.6875 0.75 14.71875 C 0.792969 14.796875 1.203125 15.207031 1.28125 15.25 C 1.300781 15.257812 1.328125 15.277344 1.34375 15.292969 C 1.363281 15.308594 1.390625 15.332031 1.40625 15.347656 C 1.425781 15.363281 1.445312 15.375 1.453125 15.375 C 1.460938 15.375 1.476562 15.386719 1.488281 15.402344 C 1.503906 15.417969 1.535156 15.4375 1.5625 15.449219 C 1.59375 15.460938 1.617188 15.480469 1.617188 15.488281 C 1.617188 15.496094 1.625 15.503906 1.636719 15.503906 C 1.648438 15.503906 1.6875 15.523438 1.71875 15.542969 C 1.75 15.566406 1.785156 15.585938 1.796875 15.585938 C 1.808594 15.585938 1.839844 15.597656 1.859375 15.617188 C 1.882812 15.632812 1.910156 15.648438 1.925781 15.648438 C 1.9375 15.648438 1.964844 15.660156 1.984375 15.675781 C 2.007812 15.695312 2.050781 15.710938 2.082031 15.71875 C 2.113281 15.722656 2.148438 15.738281 2.160156 15.75 C 2.167969 15.761719 2.207031 15.777344 2.246094 15.78125 C 2.28125 15.789062 2.328125 15.804688 2.34375 15.816406 C 2.363281 15.828125 2.421875 15.84375 2.472656 15.851562 C 2.523438 15.863281 2.597656 15.878906 2.632812 15.894531 C 2.667969 15.90625 2.742188 15.917969 2.800781 15.917969 C 2.917969 15.921875 3.09375 15.957031 3.101562 15.984375 C 3.109375 16.003906 12.894531 16.007812 12.894531 15.984375 C 12.894531 15.960938 13.007812 15.933594 13.195312 15.921875 C 13.300781 15.914062 13.390625 15.898438 13.410156 15.882812 C 13.429688 15.871094 13.488281 15.855469 13.535156 15.847656 C 13.582031 15.84375 13.636719 15.828125 13.652344 15.816406 C 13.671875 15.804688 13.71875 15.789062 13.753906 15.78125 C 13.792969 15.777344 13.832031 15.761719 13.839844 15.75 C 13.851562 15.738281 13.886719 15.722656 13.917969 15.71875 C 13.949219 15.710938 13.992188 15.695312 14.015625 15.675781 C 14.035156 15.660156 14.0625 15.648438 14.074219 15.648438 C 14.089844 15.648438 14.117188 15.632812 14.140625 15.617188 C 14.160156 15.597656 14.191406 15.585938 14.203125 15.585938 C 14.214844 15.585938 14.25 15.566406 14.28125 15.542969 C 14.3125 15.523438 14.351562 15.503906 14.363281 15.503906 C 14.375 15.503906 14.382812 15.496094 14.382812 15.488281 C 14.382812 15.480469 14.40625 15.460938 14.4375 15.449219 C 14.464844 15.4375 14.496094 15.417969 14.511719 15.402344 C 14.523438 15.386719 14.539062 15.375 14.546875 15.375 C 14.554688 15.375 14.574219 15.363281 14.589844 15.351562 C 14.601562 15.335938 14.644531 15.304688 14.679688 15.277344 C 14.84375 15.160156 15.199219 14.808594 15.25 14.71875 C 15.257812 14.699219 15.28125 14.667969 15.296875 14.652344 C 15.363281 14.574219 15.375 14.558594 15.375 14.546875 C 15.375 14.539062 15.386719 14.523438 15.402344 14.511719 C 15.417969 14.496094 15.4375 14.464844 15.449219 14.4375 C 15.460938 14.40625 15.480469 14.382812 15.488281 14.382812 C 15.496094 14.382812 15.503906 14.375 15.503906 14.363281 C 15.503906 14.351562 15.523438 14.3125 15.542969 14.28125 C 15.566406 14.25 15.585938 14.214844 15.585938 14.203125 C 15.585938 14.191406 15.597656 14.160156 15.617188 14.140625 C 15.632812 14.117188 15.648438 14.089844 15.648438 14.074219 C 15.648438 14.0625 15.660156 14.035156 15.675781 14.015625 C 15.695312 13.992188 15.710938 13.949219 15.71875 13.917969 C 15.722656 13.886719 15.738281 13.851562 15.75 13.839844 C 15.761719 13.832031 15.777344 13.792969 15.78125 13.753906 C 15.789062 13.71875 15.804688 13.671875 15.816406 13.65625 C 15.828125 13.636719 15.84375 13.578125 15.851562 13.527344 C 15.863281 13.476562 15.878906 13.402344 15.894531 13.367188 C 15.90625 13.332031 15.917969 13.257812 15.917969 13.199219 C 15.921875 13.082031 15.957031 12.90625 15.984375 12.898438 C 16.007812 12.890625 16.007812 3.109375 15.984375 3.101562 C 15.957031 3.09375 15.921875 2.917969 15.917969 2.800781 C 15.917969 2.742188 15.90625 2.667969 15.894531 2.632812 C 15.878906 2.597656 15.863281 2.523438 15.851562 2.472656 C 15.84375 2.421875 15.828125 2.363281 15.816406 2.34375 C 15.804688 2.328125 15.789062 2.28125 15.78125 2.246094 C 15.777344 2.207031 15.761719 2.167969 15.75 2.160156 C 15.738281 2.148438 15.722656 2.113281 15.71875 2.082031 C 15.710938 2.050781 15.695312 2.007812 15.675781 1.984375 C 15.660156 1.964844 15.648438 1.9375 15.648438 1.925781 C 15.648438 1.910156 15.632812 1.882812 15.617188 1.859375 C 15.597656 1.839844 15.585938 1.808594 15.585938 1.796875 C 15.585938 1.785156 15.566406 1.75 15.542969 1.71875 C 15.523438 1.6875 15.503906 1.648438 15.503906 1.636719 C 15.503906 1.625 15.496094 1.617188 15.488281 1.617188 C 15.480469 1.617188 15.460938 1.59375 15.449219 1.5625 C 15.4375 1.535156 15.417969 1.503906 15.402344 1.488281 C 15.386719 1.476562 15.375 1.460938 15.375 1.453125 C 15.375 1.445312 15.363281 1.425781 15.351562 1.410156 C 15.335938 1.398438 15.304688 1.355469 15.277344 1.320312 C 15.160156 1.15625 14.808594 0.800781 14.71875 0.75 C 14.699219 0.742188 14.671875 0.722656 14.65625 0.707031 C 14.636719 0.691406 14.609375 0.667969 14.59375 0.652344 C 14.574219 0.636719 14.554688 0.625 14.546875 0.625 C 14.539062 0.625 14.523438 0.613281 14.511719 0.597656 C 14.496094 0.582031 14.464844 0.5625 14.4375 0.550781 C 14.40625 0.539062 14.382812 0.519531 14.382812 0.511719 C 14.382812 0.503906 14.375 0.496094 14.363281 0.496094 C 14.351562 0.496094 14.3125 0.476562 14.28125 0.457031 C 14.25 0.433594 14.214844 0.414062 14.203125 0.414062 C 14.191406 0.414062 14.160156 0.402344 14.140625 0.382812 C 14.117188 0.367188 14.089844 0.351562 14.074219 0.351562 C 14.0625 0.351562 14.035156 0.339844 14.015625 0.324219 C 13.992188 0.304688 13.949219 0.289062 13.917969 0.28125 C 13.886719 0.277344 13.851562 0.261719 13.839844 0.25 C 13.832031 0.238281 13.792969 0.222656 13.753906 0.21875 C 13.71875 0.210938 13.671875 0.195312 13.65625 0.183594 C 13.636719 0.171875 13.578125 0.15625 13.527344 0.148438 C 13.476562 0.136719 13.402344 0.121094 13.367188 0.105469 C 13.332031 0.09375 13.257812 0.0820312 13.199219 0.0820312 C 13.082031 0.078125 12.90625 0.0429688 12.898438 0.015625 C 12.890625 -0.0078125 3.109375 -0.0078125 3.101562 0.015625 M 4.648438 2.148438 C 4.675781 2.160156 4.722656 2.179688 4.757812 2.183594 C 4.789062 2.1875 4.820312 2.203125 4.828125 2.21875 C 4.832031 2.230469 4.847656 2.238281 4.863281 2.242188 C 4.886719 2.242188 4.964844 2.285156 5.066406 2.359375 C 5.15625 2.425781 5.34375 2.632812 5.34375 2.667969 C 5.34375 2.675781 5.359375 2.703125 5.375 2.722656 C 5.390625 2.746094 5.410156 2.785156 5.417969 2.808594 C 5.421875 2.835938 5.4375 2.867188 5.449219 2.878906 C 5.460938 2.894531 5.476562 2.9375 5.480469 2.976562 C 5.488281 3.015625 5.5 3.082031 5.511719 3.125 C 5.542969 3.226562 5.542969 3.402344 5.515625 3.492188 C 5.5 3.527344 5.488281 3.59375 5.480469 3.640625 C 5.476562 3.683594 5.460938 3.730469 5.449219 3.742188 C 5.4375 3.757812 5.421875 3.792969 5.417969 3.820312 C 5.410156 3.851562 5.394531 3.878906 5.382812 3.882812 C 5.371094 3.886719 5.359375 3.910156 5.351562 3.933594 C 5.347656 3.960938 5.3125 4.007812 5.277344 4.042969 C 5.246094 4.082031 5.214844 4.117188 5.214844 4.125 C 5.214844 4.128906 5.195312 4.152344 5.167969 4.175781 C 5.140625 4.199219 5.101562 4.230469 5.082031 4.246094 C 5.058594 4.265625 5.023438 4.296875 5 4.316406 C 4.976562 4.335938 4.945312 4.351562 4.929688 4.351562 C 4.914062 4.351562 4.886719 4.367188 4.871094 4.382812 C 4.855469 4.402344 4.828125 4.414062 4.808594 4.414062 C 4.789062 4.414062 4.757812 4.429688 4.734375 4.445312 C 4.617188 4.527344 4.054688 4.527344 3.9375 4.445312 C 3.914062 4.429688 3.878906 4.414062 3.859375 4.414062 C 3.839844 4.414062 3.8125 4.402344 3.796875 4.386719 C 3.78125 4.371094 3.75 4.351562 3.726562 4.347656 C 3.707031 4.339844 3.660156 4.3125 3.625 4.28125 C 3.59375 4.25 3.558594 4.222656 3.554688 4.222656 C 3.542969 4.222656 3.507812 4.1875 3.390625 4.046875 C 3.339844 3.984375 3.300781 3.925781 3.261719 3.839844 C 3.253906 3.816406 3.234375 3.777344 3.21875 3.753906 C 3.199219 3.707031 3.183594 3.65625 3.136719 3.398438 C 3.117188 3.3125 3.128906 3.191406 3.164062 3.097656 C 3.175781 3.0625 3.183594 3.015625 3.183594 2.988281 C 3.183594 2.960938 3.199219 2.914062 3.214844 2.882812 C 3.230469 2.851562 3.253906 2.804688 3.261719 2.785156 C 3.304688 2.695312 3.335938 2.644531 3.390625 2.574219 C 3.472656 2.472656 3.632812 2.320312 3.675781 2.308594 C 3.695312 2.304688 3.714844 2.292969 3.71875 2.28125 C 3.722656 2.269531 3.746094 2.253906 3.773438 2.25 C 3.800781 2.242188 3.832031 2.226562 3.839844 2.214844 C 3.851562 2.203125 3.886719 2.1875 3.917969 2.183594 C 3.949219 2.179688 3.988281 2.167969 4.007812 2.15625 C 4.074219 2.121094 4.128906 2.113281 4.359375 2.117188 C 4.550781 2.121094 4.609375 2.125 4.648438 2.148438 M 5.34375 5.34375 C 5.367188 5.386719 5.367188 12.613281 5.34375 12.65625 C 5.324219 12.695312 3.367188 12.707031 3.332031 12.667969 C 3.304688 12.640625 3.304688 5.359375 3.332031 5.332031 C 3.367188 5.292969 5.324219 5.304688 5.34375 5.34375 M 8.667969 5.332031 C 8.683594 5.347656 8.6875 5.523438 8.691406 5.882812 C 8.695312 6.3125 8.699219 6.398438 8.714844 6.363281 C 8.726562 6.339844 8.742188 6.320312 8.75 6.320312 C 8.757812 6.320312 8.769531 6.300781 8.78125 6.28125 C 8.804688 6.226562 9.089844 5.933594 9.171875 5.878906 C 9.210938 5.851562 9.242188 5.828125 9.25 5.820312 C 9.261719 5.800781 9.378906 5.726562 9.417969 5.710938 C 9.4375 5.703125 9.457031 5.691406 9.457031 5.679688 C 9.457031 5.671875 9.484375 5.65625 9.519531 5.648438 C 9.554688 5.636719 9.585938 5.625 9.585938 5.617188 C 9.585938 5.609375 9.609375 5.59375 9.644531 5.582031 C 9.675781 5.570312 9.710938 5.554688 9.722656 5.542969 C 9.734375 5.53125 9.773438 5.519531 9.808594 5.511719 C 9.839844 5.507812 9.878906 5.492188 9.886719 5.480469 C 9.898438 5.46875 9.9375 5.453125 9.980469 5.449219 C 10.019531 5.441406 10.070312 5.425781 10.089844 5.414062 C 10.109375 5.398438 10.171875 5.386719 10.226562 5.382812 C 10.28125 5.375 10.351562 5.359375 10.382812 5.347656 C 10.464844 5.308594 11.316406 5.308594 11.375 5.34375 C 11.398438 5.359375 11.457031 5.375 11.507812 5.378906 C 11.558594 5.386719 11.617188 5.398438 11.636719 5.414062 C 11.65625 5.425781 11.699219 5.441406 11.734375 5.445312 C 11.769531 5.453125 11.8125 5.46875 11.824219 5.480469 C 11.835938 5.492188 11.878906 5.507812 11.914062 5.519531 C 11.949219 5.527344 11.988281 5.546875 12 5.558594 C 12.011719 5.574219 12.03125 5.585938 12.046875 5.585938 C 12.0625 5.585938 12.09375 5.597656 12.117188 5.617188 C 12.140625 5.632812 12.164062 5.648438 12.171875 5.648438 C 12.179688 5.648438 12.199219 5.664062 12.214844 5.679688 C 12.230469 5.699219 12.253906 5.710938 12.265625 5.710938 C 12.277344 5.710938 12.304688 5.726562 12.328125 5.746094 C 12.351562 5.769531 12.386719 5.796875 12.410156 5.816406 C 12.46875 5.863281 12.6875 6.074219 12.6875 6.085938 C 12.6875 6.089844 12.714844 6.121094 12.746094 6.160156 C 12.832031 6.25 12.875 6.304688 12.886719 6.347656 C 12.890625 6.367188 12.90625 6.386719 12.917969 6.390625 C 12.929688 6.394531 12.945312 6.421875 12.953125 6.449219 C 12.957031 6.476562 12.972656 6.5 12.984375 6.507812 C 12.996094 6.511719 13.011719 6.535156 13.015625 6.558594 C 13.023438 6.585938 13.035156 6.613281 13.046875 6.625 C 13.0625 6.636719 13.074219 6.667969 13.082031 6.695312 C 13.085938 6.726562 13.101562 6.757812 13.113281 6.769531 C 13.125 6.777344 13.140625 6.8125 13.144531 6.84375 C 13.152344 6.878906 13.167969 6.925781 13.1875 6.953125 C 13.203125 6.980469 13.214844 7.027344 13.214844 7.054688 C 13.214844 7.082031 13.230469 7.136719 13.246094 7.171875 C 13.261719 7.210938 13.28125 7.292969 13.285156 7.359375 C 13.292969 7.425781 13.304688 7.488281 13.316406 7.5 C 13.359375 7.550781 13.386719 12.574219 13.34375 12.65625 C 13.324219 12.695312 11.367188 12.707031 11.332031 12.667969 C 11.316406 12.652344 11.3125 12.207031 11.3125 10.75 C 11.3125 9.160156 11.308594 8.832031 11.289062 8.742188 C 11.277344 8.679688 11.261719 8.574219 11.253906 8.503906 C 11.25 8.429688 11.230469 8.351562 11.214844 8.320312 C 11.199219 8.289062 11.183594 8.242188 11.183594 8.21875 C 11.183594 8.195312 11.167969 8.15625 11.152344 8.132812 C 11.132812 8.109375 11.121094 8.078125 11.121094 8.0625 C 11.121094 8.046875 11.105469 8.019531 11.089844 7.996094 C 11.070312 7.972656 11.054688 7.949219 11.054688 7.9375 C 11.054688 7.929688 11.042969 7.90625 11.023438 7.886719 C 10.976562 7.832031 10.898438 7.726562 10.894531 7.714844 C 10.890625 7.707031 10.855469 7.679688 10.816406 7.648438 C 10.777344 7.617188 10.742188 7.585938 10.734375 7.582031 C 10.714844 7.554688 10.605469 7.488281 10.566406 7.476562 C 10.542969 7.472656 10.523438 7.457031 10.519531 7.449219 C 10.511719 7.4375 10.476562 7.421875 10.433594 7.417969 C 10.394531 7.410156 10.34375 7.394531 10.320312 7.378906 C 10.257812 7.339844 9.800781 7.339844 9.746094 7.378906 C 9.722656 7.394531 9.671875 7.414062 9.628906 7.417969 C 9.589844 7.421875 9.550781 7.4375 9.546875 7.449219 C 9.542969 7.460938 9.511719 7.476562 9.480469 7.480469 C 9.449219 7.488281 9.425781 7.496094 9.425781 7.503906 C 9.425781 7.511719 9.398438 7.535156 9.363281 7.550781 C 9.308594 7.578125 9.25 7.628906 9.136719 7.734375 C 9.097656 7.769531 9.085938 7.785156 9.023438 7.882812 C 9.003906 7.914062 8.984375 7.9375 8.976562 7.9375 C 8.96875 7.9375 8.957031 7.953125 8.949219 7.972656 C 8.945312 7.992188 8.925781 8.023438 8.910156 8.046875 C 8.894531 8.066406 8.878906 8.097656 8.878906 8.113281 C 8.878906 8.128906 8.871094 8.148438 8.855469 8.160156 C 8.84375 8.171875 8.828125 8.207031 8.824219 8.238281 C 8.816406 8.269531 8.800781 8.324219 8.785156 8.359375 C 8.769531 8.394531 8.75 8.472656 8.746094 8.535156 C 8.738281 8.597656 8.722656 8.695312 8.710938 8.757812 C 8.691406 8.847656 8.6875 9.191406 8.6875 10.757812 C 8.6875 12.207031 8.683594 12.652344 8.667969 12.667969 C 8.632812 12.707031 6.675781 12.695312 6.65625 12.65625 C 6.632812 12.613281 6.632812 5.386719 6.65625 5.34375 C 6.679688 5.304688 8.636719 5.292969 8.667969 5.332031 "/>
<path style=" stroke:none;fill-rule:evenodd;fill:rgb(34.117647%,34.117647%,34.117647%);fill-opacity:1;" d="M 2.917969 0.0234375 C 2.910156 0.0390625 2.863281 0.0546875 2.800781 0.0625 C 2.699219 0.078125 2.699219 0.078125 2.839844 0.0742188 C 2.992188 0.0664062 3.105469 0.0429688 3.105469 0.015625 C 3.105469 -0.0117188 2.9375 -0.00390625 2.917969 0.0234375 M 12.894531 0.015625 C 12.894531 0.0429688 13.007812 0.0664062 13.160156 0.0742188 C 13.300781 0.078125 13.300781 0.078125 13.199219 0.0625 C 13.140625 0.0546875 13.089844 0.0390625 13.078125 0.0234375 C 13.058594 -0.00390625 12.894531 -0.0117188 12.894531 0.015625 M 2.570312 0.0976562 C 2.554688 0.105469 2.5 0.125 2.445312 0.136719 C 2.34375 0.160156 2.191406 0.207031 2.105469 0.246094 C 1.878906 0.347656 1.722656 0.421875 1.621094 0.488281 C 1.578125 0.519531 1.535156 0.542969 1.527344 0.542969 C 1.523438 0.542969 1.496094 0.558594 1.472656 0.578125 C 1.449219 0.601562 1.414062 0.625 1.390625 0.640625 C 1.347656 0.667969 1.253906 0.738281 1.199219 0.785156 C 1.136719 0.839844 0.851562 1.121094 0.800781 1.183594 C 0.742188 1.253906 0.671875 1.34375 0.640625 1.390625 C 0.625 1.414062 0.601562 1.449219 0.578125 1.472656 C 0.558594 1.496094 0.542969 1.523438 0.542969 1.527344 C 0.542969 1.535156 0.519531 1.578125 0.488281 1.621094 C 0.421875 1.726562 0.328125 1.90625 0.238281 2.121094 C 0.207031 2.195312 0.15625 2.351562 0.136719 2.441406 C 0.125 2.496094 0.105469 2.554688 0.0976562 2.570312 C 0.0898438 2.589844 0.0742188 2.667969 0.0664062 2.753906 C 0.0546875 2.855469 0.0390625 2.910156 0.0234375 2.921875 C -0.0078125 2.945312 -0.0117188 3.09375 0.0195312 3.085938 C 0.046875 3.074219 0.0625 3.003906 0.078125 2.804688 C 0.0859375 2.699219 0.101562 2.609375 0.117188 2.589844 C 0.128906 2.570312 0.144531 2.511719 0.152344 2.464844 C 0.15625 2.417969 0.171875 2.363281 0.183594 2.347656 C 0.195312 2.328125 0.210938 2.28125 0.21875 2.246094 C 0.222656 2.207031 0.238281 2.167969 0.25 2.160156 C 0.261719 2.148438 0.277344 2.113281 0.28125 2.082031 C 0.289062 2.050781 0.304688 2.007812 0.324219 1.984375 C 0.339844 1.964844 0.351562 1.9375 0.351562 1.925781 C 0.351562 1.910156 0.367188 1.882812 0.382812 1.859375 C 0.402344 1.839844 0.414062 1.808594 0.414062 1.796875 C 0.414062 1.785156 0.433594 1.75 0.457031 1.71875 C 0.476562 1.6875 0.496094 1.648438 0.496094 1.636719 C 0.496094 1.625 0.503906 1.617188 0.511719 1.617188 C 0.519531 1.617188 0.539062 1.59375 0.550781 1.5625 C 0.5625 1.535156 0.582031 1.503906 0.597656 1.488281 C 0.613281 1.476562 0.625 1.460938 0.625 1.453125 C 0.625 1.445312 0.636719 1.421875 0.65625 1.402344 C 0.71875 1.332031 0.734375 1.3125 0.75 1.28125 C 0.792969 1.203125 1.203125 0.792969 1.28125 0.75 C 1.300781 0.742188 1.328125 0.722656 1.34375 0.707031 C 1.363281 0.691406 1.390625 0.667969 1.40625 0.652344 C 1.425781 0.636719 1.445312 0.625 1.453125 0.625 C 1.460938 0.625 1.476562 0.613281 1.488281 0.597656 C 1.503906 0.582031 1.535156 0.5625 1.5625 0.550781 C 1.59375 0.539062 1.617188 0.519531 1.617188 0.511719 C 1.617188 0.503906 1.625 0.496094 1.636719 0.496094 C 1.648438 0.496094 1.6875 0.476562 1.71875 0.457031 C 1.75 0.433594 1.785156 0.414062 1.796875 0.414062 C 1.808594 0.414062 1.839844 0.402344 1.859375 0.382812 C 1.882812 0.367188 1.910156 0.351562 1.925781 0.351562 C 1.9375 0.351562 1.964844 0.339844 1.984375 0.324219 C 2.007812 0.304688 2.050781 0.289062 2.082031 0.28125 C 2.113281 0.277344 2.148438 0.261719 2.160156 0.25 C 2.167969 0.238281 2.207031 0.222656 2.246094 0.21875 C 2.28125 0.210938 2.328125 0.195312 2.34375 0.183594 C 2.363281 0.171875 2.421875 0.15625 2.472656 0.148438 C 2.601562 0.125 2.71875 0.0820312 2.648438 0.0820312 C 2.621094 0.0820312 2.585938 0.0898438 2.570312 0.0976562 M 13.367188 0.105469 C 13.402344 0.121094 13.476562 0.136719 13.527344 0.148438 C 13.578125 0.15625 13.636719 0.171875 13.65625 0.183594 C 13.671875 0.195312 13.71875 0.210938 13.753906 0.21875 C 13.792969 0.222656 13.832031 0.238281 13.839844 0.25 C 13.851562 0.261719 13.886719 0.277344 13.917969 0.28125 C 13.949219 0.289062 13.992188 0.304688 14.015625 0.324219 C 14.035156 0.339844 14.0625 0.351562 14.074219 0.351562 C 14.089844 0.351562 14.117188 0.367188 14.140625 0.382812 C 14.160156 0.402344 14.191406 0.414062 14.203125 0.414062 C 14.214844 0.414062 14.25 0.433594 14.28125 0.457031 C 14.3125 0.476562 14.351562 0.496094 14.363281 0.496094 C 14.375 0.496094 14.382812 0.503906 14.382812 0.511719 C 14.382812 0.519531 14.40625 0.539062 14.4375 0.550781 C 14.464844 0.5625 14.496094 0.582031 14.511719 0.597656 C 14.523438 0.613281 14.539062 0.625 14.546875 0.625 C 14.554688 0.625 14.574219 0.636719 14.59375 0.652344 C 14.609375 0.667969 14.636719 0.691406 14.65625 0.707031 C 14.671875 0.722656 14.699219 0.742188 14.71875 0.75 C 14.808594 0.800781 15.160156 1.15625 15.277344 1.320312 C 15.304688 1.355469 15.335938 1.398438 15.351562 1.410156 C 15.363281 1.425781 15.375 1.445312 15.375 1.453125 C 15.375 1.460938 15.386719 1.476562 15.402344 1.488281 C 15.417969 1.503906 15.4375 1.535156 15.449219 1.5625 C 15.460938 1.59375 15.480469 1.617188 15.488281 1.617188 C 15.496094 1.617188 15.503906 1.625 15.503906 1.636719 C 15.503906 1.648438 15.523438 1.6875 15.542969 1.71875 C 15.566406 1.75 15.585938 1.785156 15.585938 1.796875 C 15.585938 1.808594 15.597656 1.839844 15.617188 1.859375 C 15.632812 1.882812 15.648438 1.910156 15.648438 1.925781 C 15.648438 1.9375 15.660156 1.964844 15.675781 1.984375 C 15.695312 2.007812 15.710938 2.050781 15.71875 2.082031 C 15.722656 2.113281 15.738281 2.148438 15.75 2.160156 C 15.761719 2.167969 15.777344 2.207031 15.78125 2.246094 C 15.789062 2.28125 15.804688 2.328125 15.816406 2.34375 C 15.828125 2.363281 15.84375 2.421875 15.851562 2.472656 C 15.875 2.597656 15.917969 2.71875 15.917969 2.652344 C 15.917969 2.625 15.914062 2.589844 15.902344 2.574219 C 15.894531 2.554688 15.875 2.496094 15.863281 2.441406 C 15.84375 2.351562 15.792969 2.195312 15.761719 2.121094 C 15.671875 1.90625 15.578125 1.726562 15.511719 1.621094 C 15.480469 1.578125 15.457031 1.535156 15.457031 1.527344 C 15.457031 1.519531 15.394531 1.433594 15.351562 1.382812 C 15.34375 1.371094 15.316406 1.335938 15.296875 1.304688 C 15.191406 1.152344 14.878906 0.84375 14.695312 0.703125 C 14.660156 0.679688 14.625 0.652344 14.617188 0.644531 C 14.523438 0.574219 14.480469 0.542969 14.472656 0.542969 C 14.464844 0.542969 14.421875 0.519531 14.378906 0.488281 C 14.273438 0.421875 14.09375 0.328125 13.878906 0.238281 C 13.804688 0.207031 13.648438 0.15625 13.558594 0.136719 C 13.503906 0.125 13.445312 0.105469 13.425781 0.0976562 C 13.410156 0.0859375 13.375 0.0820312 13.347656 0.0820312 C 13.308594 0.0820312 13.308594 0.0820312 13.367188 0.105469 M 4.078125 2.125 C 4.058594 2.132812 4.023438 2.148438 4.007812 2.15625 C 3.988281 2.167969 3.949219 2.179688 3.917969 2.183594 C 3.886719 2.1875 3.851562 2.203125 3.839844 2.214844 C 3.832031 2.226562 3.800781 2.242188 3.773438 2.25 C 3.746094 2.253906 3.722656 2.269531 3.71875 2.28125 C 3.714844 2.292969 3.695312 2.304688 3.675781 2.308594 C 3.632812 2.320312 3.472656 2.472656 3.390625 2.574219 C 3.335938 2.644531 3.304688 2.695312 3.261719 2.785156 C 3.253906 2.804688 3.230469 2.851562 3.214844 2.882812 C 3.199219 2.914062 3.183594 2.960938 3.183594 2.988281 C 3.183594 3.015625 3.175781 3.0625 3.164062 3.097656 C 3.128906 3.191406 3.117188 3.3125 3.136719 3.398438 C 3.183594 3.65625 3.199219 3.707031 3.21875 3.753906 C 3.234375 3.777344 3.253906 3.816406 3.261719 3.839844 C 3.300781 3.925781 3.339844 3.984375 3.390625 4.046875 C 3.507812 4.1875 3.542969 4.222656 3.554688 4.222656 C 3.558594 4.222656 3.59375 4.25 3.625 4.28125 C 3.660156 4.3125 3.707031 4.339844 3.726562 4.347656 C 3.75 4.351562 3.78125 4.371094 3.796875 4.386719 C 3.8125 4.402344 3.839844 4.417969 3.859375 4.417969 C 3.878906 4.417969 3.917969 4.429688 3.945312 4.449219 C 3.972656 4.464844 4.015625 4.480469 4.046875 4.476562 L 4.105469 4.476562 L 4.054688 4.464844 C 3.960938 4.4375 3.847656 4.390625 3.808594 4.363281 C 3.785156 4.347656 3.761719 4.335938 3.753906 4.335938 C 3.6875 4.335938 3.328125 3.984375 3.328125 3.914062 C 3.328125 3.90625 3.316406 3.886719 3.304688 3.875 C 3.035156 3.566406 3.183594 2.714844 3.554688 2.429688 C 3.582031 2.410156 3.628906 2.375 3.65625 2.351562 C 4.019531 2.0625 4.585938 2.058594 4.992188 2.339844 C 5.15625 2.449219 5.226562 2.53125 5.363281 2.753906 C 5.714844 3.324219 5.390625 4.183594 4.734375 4.417969 C 4.582031 4.472656 4.523438 4.484375 4.3125 4.484375 C 4.132812 4.484375 4.117188 4.488281 4.191406 4.5 C 4.355469 4.527344 4.664062 4.496094 4.734375 4.445312 C 4.757812 4.429688 4.789062 4.414062 4.808594 4.414062 C 4.828125 4.414062 4.855469 4.402344 4.871094 4.382812 C 4.886719 4.367188 4.914062 4.351562 4.929688 4.351562 C 4.945312 4.351562 4.976562 4.335938 5 4.316406 C 5.023438 4.296875 5.058594 4.265625 5.082031 4.246094 C 5.101562 4.230469 5.140625 4.199219 5.167969 4.175781 C 5.195312 4.152344 5.214844 4.128906 5.214844 4.125 C 5.214844 4.117188 5.246094 4.082031 5.277344 4.042969 C 5.3125 4.007812 5.347656 3.960938 5.351562 3.933594 C 5.359375 3.910156 5.371094 3.886719 5.382812 3.882812 C 5.394531 3.878906 5.410156 3.851562 5.417969 3.820312 C 5.421875 3.792969 5.4375 3.757812 5.449219 3.742188 C 5.460938 3.730469 5.476562 3.683594 5.480469 3.640625 C 5.488281 3.59375 5.5 3.527344 5.515625 3.492188 C 5.542969 3.402344 5.542969 3.226562 5.511719 3.125 C 5.5 3.082031 5.488281 3.015625 5.480469 2.976562 C 5.476562 2.9375 5.460938 2.894531 5.449219 2.878906 C 5.4375 2.867188 5.421875 2.835938 5.417969 2.808594 C 5.410156 2.785156 5.390625 2.746094 5.375 2.722656 C 5.359375 2.703125 5.34375 2.675781 5.34375 2.667969 C 5.34375 2.632812 5.15625 2.425781 5.066406 2.359375 C 4.964844 2.285156 4.886719 2.242188 4.863281 2.242188 C 4.847656 2.238281 4.832031 2.230469 4.828125 2.21875 C 4.820312 2.203125 4.789062 2.1875 4.757812 2.183594 C 4.722656 2.179688 4.675781 2.160156 4.648438 2.148438 C 4.59375 2.117188 4.15625 2.101562 4.078125 2.125 M 15.925781 2.839844 C 15.933594 2.992188 15.957031 3.105469 15.984375 3.105469 C 16.011719 3.105469 16.003906 2.941406 15.976562 2.921875 C 15.960938 2.910156 15.945312 2.859375 15.9375 2.800781 C 15.921875 2.699219 15.921875 2.699219 15.925781 2.839844 M 3.332031 5.332031 C 3.304688 5.359375 3.304688 12.640625 3.332031 12.667969 C 3.367188 12.707031 5.324219 12.695312 5.34375 12.65625 C 5.367188 12.613281 5.367188 5.386719 5.34375 5.34375 C 5.324219 5.304688 3.367188 5.292969 3.332031 5.332031 M 6.65625 5.34375 C 6.632812 5.386719 6.632812 12.613281 6.65625 12.65625 C 6.675781 12.695312 8.632812 12.707031 8.667969 12.667969 C 8.683594 12.652344 8.6875 12.207031 8.6875 10.757812 C 8.6875 9.191406 8.691406 8.847656 8.710938 8.757812 C 8.722656 8.695312 8.738281 8.597656 8.746094 8.535156 C 8.75 8.472656 8.769531 8.394531 8.785156 8.359375 C 8.800781 8.324219 8.816406 8.269531 8.824219 8.238281 C 8.828125 8.207031 8.84375 8.171875 8.855469 8.160156 C 8.871094 8.148438 8.878906 8.128906 8.878906 8.113281 C 8.878906 8.097656 8.894531 8.066406 8.910156 8.046875 C 8.925781 8.023438 8.945312 7.992188 8.949219 7.972656 C 8.957031 7.953125 8.96875 7.9375 8.976562 7.9375 C 8.984375 7.9375 9.003906 7.914062 9.023438 7.882812 C 9.085938 7.785156 9.097656 7.769531 9.136719 7.734375 C 9.25 7.628906 9.308594 7.578125 9.363281 7.550781 C 9.398438 7.535156 9.425781 7.511719 9.425781 7.503906 C 9.425781 7.496094 9.449219 7.488281 9.480469 7.480469 C 9.511719 7.476562 9.542969 7.460938 9.546875 7.449219 C 9.550781 7.4375 9.589844 7.421875 9.628906 7.417969 C 9.671875 7.414062 9.722656 7.394531 9.746094 7.378906 C 9.800781 7.339844 10.257812 7.339844 10.320312 7.378906 C 10.34375 7.394531 10.394531 7.410156 10.433594 7.417969 C 10.476562 7.421875 10.511719 7.4375 10.519531 7.449219 C 10.523438 7.457031 10.542969 7.472656 10.566406 7.476562 C 10.605469 7.488281 10.714844 7.554688 10.734375 7.582031 C 10.742188 7.585938 10.777344 7.617188 10.816406 7.648438 C 10.855469 7.679688 10.890625 7.707031 10.894531 7.714844 C 10.898438 7.726562 10.976562 7.832031 11.023438 7.886719 C 11.042969 7.90625 11.054688 7.929688 11.054688 7.9375 C 11.054688 7.949219 11.070312 7.972656 11.089844 7.996094 C 11.105469 8.019531 11.121094 8.046875 11.121094 8.0625 C 11.121094 8.078125 11.132812 8.109375 11.152344 8.132812 C 11.167969 8.15625 11.183594 8.195312 11.183594 8.21875 C 11.183594 8.242188 11.199219 8.289062 11.214844 8.320312 C 11.230469 8.351562 11.25 8.429688 11.253906 8.503906 C 11.261719 8.574219 11.277344 8.679688 11.289062 8.742188 C 11.308594 8.832031 11.3125 9.160156 11.3125 10.75 C 11.3125 12.207031 11.316406 12.652344 11.332031 12.667969 C 11.367188 12.707031 13.324219 12.695312 13.34375 12.65625 C 13.386719 12.574219 13.359375 7.550781 13.316406 7.5 C 13.304688 7.488281 13.292969 7.425781 13.285156 7.359375 C 13.28125 7.292969 13.261719 7.210938 13.246094 7.171875 C 13.230469 7.136719 13.214844 7.082031 13.214844 7.054688 C 13.214844 7.027344 13.203125 6.980469 13.1875 6.953125 C 13.167969 6.925781 13.152344 6.878906 13.144531 6.84375 C 13.140625 6.8125 13.125 6.777344 13.113281 6.769531 C 13.101562 6.757812 13.085938 6.726562 13.082031 6.695312 C 13.074219 6.667969 13.0625 6.636719 13.046875 6.625 C 13.035156 6.613281 13.023438 6.585938 13.015625 6.558594 C 13.011719 6.535156 12.996094 6.511719 12.984375 6.507812 C 12.972656 6.5 12.957031 6.476562 12.953125 6.449219 C 12.945312 6.421875 12.929688 6.394531 12.917969 6.390625 C 12.90625 6.386719 12.890625 6.367188 12.886719 6.347656 C 12.875 6.304688 12.832031 6.25 12.746094 6.160156 C 12.714844 6.121094 12.6875 6.089844 12.6875 6.085938 C 12.6875 6.074219 12.46875 5.863281 12.410156 5.816406 C 12.386719 5.796875 12.351562 5.769531 12.328125 5.746094 C 12.304688 5.726562 12.277344 5.710938 12.265625 5.710938 C 12.253906 5.710938 12.230469 5.699219 12.214844 5.679688 C 12.199219 5.664062 12.179688 5.648438 12.171875 5.648438 C 12.164062 5.648438 12.140625 5.632812 12.117188 5.617188 C 12.09375 5.597656 12.0625 5.585938 12.046875 5.585938 C 12.03125 5.585938 12.011719 5.574219 12 5.558594 C 11.988281 5.546875 11.949219 5.527344 11.914062 5.519531 C 11.878906 5.507812 11.835938 5.492188 11.824219 5.480469 C 11.8125 5.46875 11.769531 5.453125 11.734375 5.445312 C 11.699219 5.441406 11.65625 5.425781 11.636719 5.414062 C 11.617188 5.398438 11.558594 5.386719 11.507812 5.378906 C 11.457031 5.375 11.398438 5.359375 11.375 5.34375 C 11.316406 5.308594 10.464844 5.308594 10.382812 5.347656 C 10.351562 5.359375 10.28125 5.375 10.226562 5.382812 C 10.171875 5.386719 10.109375 5.398438 10.089844 5.414062 C 10.070312 5.425781 10.019531 5.441406 9.980469 5.449219 C 9.9375 5.453125 9.898438 5.46875 9.886719 5.480469 C 9.878906 5.492188 9.839844 5.507812 9.808594 5.511719 C 9.773438 5.519531 9.734375 5.53125 9.722656 5.542969 C 9.710938 5.554688 9.675781 5.570312 9.644531 5.582031 C 9.609375 5.59375 9.585938 5.609375 9.585938 5.617188 C 9.585938 5.625 9.554688 5.636719 9.519531 5.648438 C 9.484375 5.65625 9.457031 5.671875 9.457031 5.679688 C 9.457031 5.691406 9.4375 5.703125 9.417969 5.710938 C 9.378906 5.726562 9.261719 5.800781 9.25 5.820312 C 9.242188 5.828125 9.210938 5.851562 9.171875 5.878906 C 9.089844 5.933594 8.804688 6.226562 8.78125 6.28125 C 8.769531 6.300781 8.757812 6.320312 8.75 6.320312 C 8.742188 6.320312 8.726562 6.339844 8.714844 6.363281 C 8.699219 6.398438 8.695312 6.3125 8.691406 5.882812 C 8.6875 5.523438 8.683594 5.347656 8.667969 5.332031 C 8.636719 5.292969 6.679688 5.304688 6.65625 5.34375 M 5.324219 5.347656 C 5.355469 5.378906 5.351562 12.628906 5.320312 12.652344 C 5.304688 12.667969 5.03125 12.671875 4.316406 12.667969 L 3.335938 12.664062 L 3.332031 9.015625 C 3.328125 7.007812 3.332031 5.359375 3.335938 5.347656 C 3.347656 5.320312 5.296875 5.320312 5.324219 5.347656 M 8.671875 5.882812 C 8.679688 6.421875 8.6875 6.496094 8.71875 6.40625 C 8.757812 6.304688 9.042969 6.003906 9.222656 5.871094 C 9.292969 5.820312 9.359375 5.769531 9.371094 5.761719 C 9.382812 5.753906 9.433594 5.722656 9.492188 5.695312 C 9.546875 5.664062 9.601562 5.632812 9.617188 5.621094 C 9.628906 5.613281 9.65625 5.597656 9.679688 5.59375 C 9.703125 5.585938 9.730469 5.570312 9.742188 5.558594 C 9.757812 5.550781 9.796875 5.53125 9.832031 5.523438 C 9.898438 5.503906 10.019531 5.464844 10.113281 5.429688 C 10.144531 5.417969 10.222656 5.402344 10.289062 5.390625 C 10.355469 5.382812 10.433594 5.367188 10.464844 5.355469 C 10.621094 5.300781 11.324219 5.339844 11.566406 5.417969 C 11.609375 5.429688 11.667969 5.449219 11.703125 5.457031 C 11.738281 5.464844 11.785156 5.484375 11.804688 5.496094 C 11.824219 5.507812 11.847656 5.519531 11.859375 5.519531 C 11.871094 5.519531 11.925781 5.546875 11.984375 5.574219 C 12.042969 5.605469 12.105469 5.640625 12.128906 5.652344 C 12.148438 5.660156 12.179688 5.679688 12.195312 5.695312 C 12.210938 5.707031 12.238281 5.726562 12.253906 5.734375 C 12.4375 5.84375 12.625 6.027344 12.84375 6.320312 C 12.890625 6.382812 12.980469 6.539062 13.039062 6.664062 C 13.066406 6.726562 13.101562 6.796875 13.113281 6.820312 C 13.125 6.84375 13.136719 6.875 13.136719 6.890625 C 13.136719 6.90625 13.148438 6.941406 13.160156 6.96875 C 13.175781 6.992188 13.191406 7.046875 13.199219 7.085938 C 13.207031 7.128906 13.226562 7.195312 13.238281 7.238281 C 13.253906 7.285156 13.28125 7.414062 13.300781 7.527344 L 13.335938 7.734375 L 13.339844 10.1875 C 13.34375 12.265625 13.339844 12.636719 13.324219 12.652344 C 13.304688 12.667969 13.042969 12.671875 12.316406 12.667969 L 11.335938 12.664062 L 11.328125 10.648438 C 11.320312 8.816406 11.316406 8.625 11.292969 8.542969 C 11.277344 8.496094 11.265625 8.441406 11.265625 8.421875 C 11.265625 8.382812 11.191406 8.15625 11.160156 8.097656 C 11.148438 8.074219 11.121094 8.023438 11.105469 7.980469 C 11.085938 7.9375 11.035156 7.863281 10.992188 7.808594 C 10.949219 7.753906 10.910156 7.707031 10.910156 7.699219 C 10.894531 7.664062 10.683594 7.507812 10.574219 7.453125 C 10.339844 7.328125 9.878906 7.289062 9.691406 7.375 C 9.652344 7.390625 9.605469 7.410156 9.589844 7.410156 C 9.574219 7.410156 9.523438 7.429688 9.480469 7.457031 C 9.4375 7.480469 9.378906 7.515625 9.347656 7.53125 C 9.070312 7.6875 8.832031 8.054688 8.722656 8.496094 L 8.683594 8.664062 L 8.671875 10.664062 L 8.664062 12.664062 L 7.683594 12.667969 C 6.96875 12.671875 6.695312 12.667969 6.679688 12.652344 C 6.648438 12.628906 6.644531 5.378906 6.675781 5.347656 C 6.691406 5.332031 6.925781 5.328125 7.679688 5.332031 L 8.664062 5.335938 L 8.671875 5.882812 M 0 12.976562 C 0 13.035156 0.0078125 13.066406 0.0234375 13.078125 C 0.0390625 13.089844 0.0546875 13.140625 0.0625 13.199219 C 0.078125 13.300781 0.078125 13.300781 0.0742188 13.160156 C 0.0625 12.941406 0 12.78125 0 12.976562 M 15.953125 12.957031 C 15.941406 12.988281 15.929688 13.082031 15.925781 13.160156 C 15.921875 13.300781 15.921875 13.300781 15.9375 13.199219 C 15.945312 13.140625 15.960938 13.089844 15.976562 13.078125 C 15.992188 13.066406 16 13.035156 16 12.976562 C 16 12.882812 15.976562 12.871094 15.953125 12.957031 M 0.0820312 13.347656 C 0.0820312 13.375 0.0859375 13.410156 0.0976562 13.425781 C 0.105469 13.445312 0.125 13.503906 0.136719 13.558594 C 0.160156 13.65625 0.207031 13.808594 0.246094 13.894531 C 0.347656 14.121094 0.421875 14.277344 0.488281 14.378906 C 0.519531 14.421875 0.542969 14.464844 0.542969 14.472656 C 0.542969 14.476562 0.558594 14.503906 0.578125 14.527344 C 0.601562 14.550781 0.625 14.585938 0.640625 14.609375 C 0.671875 14.65625 0.742188 14.746094 0.800781 14.816406 C 0.851562 14.878906 1.136719 15.160156 1.199219 15.214844 C 1.253906 15.261719 1.347656 15.332031 1.390625 15.359375 C 1.414062 15.375 1.449219 15.398438 1.472656 15.421875 C 1.496094 15.441406 1.523438 15.457031 1.527344 15.457031 C 1.535156 15.457031 1.578125 15.480469 1.621094 15.511719 C 1.726562 15.578125 1.90625 15.671875 2.121094 15.761719 C 2.195312 15.792969 2.351562 15.84375 2.441406 15.863281 C 2.496094 15.875 2.554688 15.894531 2.574219 15.902344 C 2.589844 15.914062 2.625 15.917969 2.652344 15.917969 C 2.71875 15.917969 2.597656 15.875 2.472656 15.851562 C 2.421875 15.84375 2.363281 15.828125 2.34375 15.816406 C 2.328125 15.804688 2.28125 15.789062 2.246094 15.78125 C 2.207031 15.777344 2.167969 15.761719 2.160156 15.75 C 2.148438 15.738281 2.113281 15.722656 2.082031 15.71875 C 2.050781 15.710938 2.007812 15.695312 1.984375 15.675781 C 1.964844 15.660156 1.9375 15.648438 1.925781 15.648438 C 1.910156 15.648438 1.882812 15.632812 1.859375 15.617188 C 1.839844 15.597656 1.808594 15.585938 1.796875 15.585938 C 1.785156 15.585938 1.75 15.566406 1.71875 15.542969 C 1.6875 15.523438 1.648438 15.503906 1.636719 15.503906 C 1.625 15.503906 1.617188 15.496094 1.617188 15.488281 C 1.617188 15.480469 1.59375 15.460938 1.5625 15.449219 C 1.535156 15.4375 1.503906 15.417969 1.488281 15.402344 C 1.476562 15.386719 1.460938 15.375 1.453125 15.375 C 1.445312 15.375 1.425781 15.363281 1.40625 15.347656 C 1.390625 15.332031 1.363281 15.308594 1.34375 15.292969 C 1.328125 15.277344 1.300781 15.257812 1.28125 15.25 C 1.203125 15.207031 0.792969 14.796875 0.75 14.71875 C 0.742188 14.699219 0.71875 14.667969 0.703125 14.652344 C 0.636719 14.574219 0.625 14.558594 0.625 14.546875 C 0.625 14.539062 0.613281 14.523438 0.597656 14.511719 C 0.582031 14.496094 0.5625 14.464844 0.550781 14.4375 C 0.539062 14.40625 0.519531 14.382812 0.511719 14.382812 C 0.503906 14.382812 0.496094 14.375 0.496094 14.363281 C 0.496094 14.351562 0.476562 14.3125 0.457031 14.28125 C 0.433594 14.25 0.414062 14.214844 0.414062 14.203125 C 0.414062 14.191406 0.402344 14.160156 0.382812 14.140625 C 0.367188 14.117188 0.351562 14.089844 0.351562 14.074219 C 0.351562 14.0625 0.339844 14.035156 0.324219 14.015625 C 0.304688 13.992188 0.289062 13.949219 0.28125 13.917969 C 0.277344 13.886719 0.261719 13.851562 0.25 13.839844 C 0.238281 13.832031 0.222656 13.792969 0.21875 13.753906 C 0.210938 13.71875 0.195312 13.671875 0.183594 13.65625 C 0.171875 13.636719 0.15625 13.578125 0.148438 13.527344 C 0.125 13.402344 0.0820312 13.28125 0.0820312 13.347656 M 15.890625 13.371094 C 15.878906 13.40625 15.863281 13.476562 15.851562 13.527344 C 15.84375 13.578125 15.828125 13.636719 15.816406 13.65625 C 15.804688 13.671875 15.789062 13.71875 15.78125 13.753906 C 15.777344 13.792969 15.761719 13.832031 15.75 13.839844 C 15.738281 13.851562 15.722656 13.886719 15.71875 13.917969 C 15.710938 13.949219 15.695312 13.992188 15.675781 14.015625 C 15.660156 14.035156 15.648438 14.0625 15.648438 14.074219 C 15.648438 14.089844 15.632812 14.117188 15.617188 14.140625 C 15.597656 14.160156 15.585938 14.191406 15.585938 14.203125 C 15.585938 14.214844 15.566406 14.25 15.542969 14.28125 C 15.523438 14.3125 15.503906 14.351562 15.503906 14.363281 C 15.503906 14.375 15.496094 14.382812 15.488281 14.382812 C 15.480469 14.382812 15.460938 14.40625 15.449219 14.4375 C 15.4375 14.464844 15.417969 14.496094 15.402344 14.511719 C 15.386719 14.523438 15.375 14.539062 15.375 14.546875 C 15.375 14.554688 15.363281 14.578125 15.34375 14.597656 C 15.28125 14.667969 15.265625 14.6875 15.25 14.71875 C 15.199219 14.808594 14.84375 15.160156 14.679688 15.277344 C 14.644531 15.304688 14.601562 15.335938 14.589844 15.351562 C 14.574219 15.363281 14.554688 15.375 14.546875 15.375 C 14.539062 15.375 14.523438 15.386719 14.511719 15.402344 C 14.496094 15.417969 14.464844 15.4375 14.4375 15.449219 C 14.40625 15.460938 14.382812 15.480469 14.382812 15.488281 C 14.382812 15.496094 14.375 15.503906 14.363281 15.503906 C 14.351562 15.503906 14.3125 15.523438 14.28125 15.542969 C 14.25 15.566406 14.214844 15.585938 14.203125 15.585938 C 14.191406 15.585938 14.160156 15.597656 14.140625 15.617188 C 14.117188 15.632812 14.089844 15.648438 14.074219 15.648438 C 14.0625 15.648438 14.035156 15.660156 14.015625 15.675781 C 13.992188 15.695312 13.949219 15.710938 13.917969 15.71875 C 13.886719 15.722656 13.851562 15.738281 13.839844 15.75 C 13.832031 15.761719 13.792969 15.777344 13.753906 15.78125 C 13.71875 15.789062 13.671875 15.804688 13.652344 15.816406 C 13.636719 15.828125 13.582031 15.84375 13.535156 15.847656 C 13.488281 15.855469 13.429688 15.871094 13.410156 15.882812 C 13.390625 15.898438 13.300781 15.914062 13.195312 15.921875 C 13.007812 15.933594 12.894531 15.960938 12.894531 15.984375 C 12.894531 16.011719 13.058594 16.003906 13.078125 15.976562 C 13.089844 15.960938 13.144531 15.945312 13.246094 15.933594 C 13.332031 15.925781 13.410156 15.910156 13.429688 15.902344 C 13.445312 15.894531 13.503906 15.875 13.558594 15.863281 C 13.648438 15.84375 13.804688 15.792969 13.878906 15.761719 C 14.09375 15.671875 14.273438 15.578125 14.378906 15.511719 C 14.421875 15.480469 14.464844 15.457031 14.472656 15.457031 C 14.480469 15.457031 14.566406 15.394531 14.617188 15.351562 C 14.628906 15.34375 14.664062 15.316406 14.695312 15.296875 C 14.847656 15.191406 15.15625 14.878906 15.296875 14.695312 C 15.320312 14.660156 15.347656 14.625 15.355469 14.617188 C 15.425781 14.523438 15.457031 14.480469 15.457031 14.472656 C 15.457031 14.464844 15.480469 14.421875 15.511719 14.378906 C 15.578125 14.273438 15.671875 14.09375 15.761719 13.878906 C 15.792969 13.804688 15.84375 13.648438 15.863281 13.558594 C 15.875 13.503906 15.894531 13.441406 15.902344 13.425781 C 15.914062 13.40625 15.917969 13.371094 15.917969 13.351562 C 15.914062 13.3125 15.910156 13.316406 15.890625 13.371094 M 2.800781 15.9375 C 2.859375 15.945312 2.910156 15.960938 2.921875 15.976562 C 2.941406 16.003906 3.105469 16.011719 3.105469 15.984375 C 3.105469 15.957031 2.992188 15.933594 2.839844 15.925781 C 2.699219 15.921875 2.699219 15.921875 2.800781 15.9375 "/>
<path style=" stroke:none;fill-rule:evenodd;fill:rgb(45.490196%,45.490196%,45.490196%);fill-opacity:1;" d="M 2.890625 0.0234375 C 2.882812 0.0390625 2.886719 0.046875 2.898438 0.0429688 C 2.921875 0.0351562 2.9375 0 2.914062 0 C 2.90625 0 2.894531 0.0117188 2.890625 0.0234375 M 13.074219 0.0195312 C 13.078125 0.03125 13.089844 0.0390625 13.101562 0.0429688 C 13.113281 0.046875 13.117188 0.0390625 13.109375 0.0234375 C 13.097656 -0.00390625 13.066406 -0.0117188 13.074219 0.0195312 M 4.402344 2.140625 C 4.417969 2.144531 4.445312 2.144531 4.460938 2.140625 C 4.476562 2.136719 4.460938 2.132812 4.433594 2.132812 C 4.402344 2.132812 4.386719 2.136719 4.402344 2.140625 M 0.015625 2.894531 C 0.00390625 2.902344 0 2.914062 0.00390625 2.921875 C 0.0117188 2.929688 0.0234375 2.925781 0.0351562 2.914062 C 0.0585938 2.890625 0.046875 2.878906 0.015625 2.894531 M 15.957031 2.898438 C 15.964844 2.921875 16 2.9375 16 2.914062 C 16 2.90625 15.988281 2.894531 15.976562 2.890625 C 15.960938 2.882812 15.953125 2.886719 15.957031 2.898438 M 10.621094 5.339844 C 10.648438 5.34375 10.699219 5.34375 10.730469 5.339844 C 10.765625 5.335938 10.742188 5.332031 10.679688 5.332031 C 10.617188 5.332031 10.589844 5.335938 10.621094 5.339844 M 5.335938 9 C 5.335938 11.007812 5.335938 11.824219 5.339844 10.820312 C 5.34375 9.8125 5.34375 8.171875 5.339844 7.171875 C 5.335938 6.171875 5.335938 6.992188 5.335938 9 M 6.664062 9 C 6.664062 11.007812 6.664062 11.824219 6.667969 10.820312 C 6.671875 9.8125 6.671875 8.171875 6.667969 7.171875 C 6.664062 6.171875 6.664062 6.992188 6.664062 9 M 9.054688 6.011719 L 8.96875 6.105469 L 9.058594 6.015625 C 9.109375 5.96875 9.152344 5.925781 9.152344 5.925781 C 9.152344 5.914062 9.136719 5.925781 9.054688 6.011719 M 13.335938 10.265625 C 13.335938 11.574219 13.335938 12.109375 13.339844 11.449219 C 13.34375 10.792969 13.34375 9.71875 13.339844 9.066406 C 13.335938 8.414062 13.335938 8.953125 13.335938 10.265625 M 0 13.085938 C 0 13.09375 0.0117188 13.105469 0.0234375 13.109375 C 0.0390625 13.117188 0.046875 13.113281 0.0429688 13.101562 C 0.0351562 13.078125 0 13.0625 0 13.085938 M 15.960938 13.082031 C 15.941406 13.101562 15.953125 13.121094 15.976562 13.109375 C 15.988281 13.105469 16 13.09375 16 13.085938 C 16 13.070312 15.976562 13.066406 15.960938 13.082031 M 2.890625 15.976562 C 2.894531 15.988281 2.90625 16 2.914062 16 C 2.9375 16 2.921875 15.964844 2.898438 15.957031 C 2.886719 15.953125 2.882812 15.960938 2.890625 15.976562 M 13.082031 15.960938 C 13.066406 15.976562 13.070312 16 13.085938 16 C 13.09375 16 13.105469 15.988281 13.109375 15.976562 C 13.121094 15.953125 13.101562 15.941406 13.082031 15.960938 "/>
<path style=" stroke:none;fill-rule:evenodd;fill:rgb(48.627451%,48.627451%,48.627451%);fill-opacity:1;" d="M 2.773438 0.0234375 C 2.761719 0.0351562 2.707031 0.046875 2.648438 0.0546875 C 2.59375 0.0585938 2.523438 0.0742188 2.5 0.0859375 C 2.476562 0.0976562 2.421875 0.113281 2.375 0.121094 C 2.332031 0.125 2.285156 0.140625 2.273438 0.152344 C 2.257812 0.164062 2.222656 0.175781 2.191406 0.183594 C 2.160156 0.1875 2.105469 0.207031 2.070312 0.222656 C 2.035156 0.238281 1.988281 0.261719 1.96875 0.269531 C 1.945312 0.28125 1.917969 0.292969 1.902344 0.300781 C 1.890625 0.308594 1.863281 0.324219 1.839844 0.335938 C 1.816406 0.34375 1.789062 0.359375 1.777344 0.367188 C 1.761719 0.371094 1.734375 0.390625 1.710938 0.402344 C 1.457031 0.535156 1.214844 0.71875 0.964844 0.964844 C 0.71875 1.214844 0.535156 1.457031 0.402344 1.710938 C 0.390625 1.734375 0.371094 1.761719 0.367188 1.777344 C 0.359375 1.789062 0.34375 1.816406 0.335938 1.839844 C 0.324219 1.863281 0.308594 1.890625 0.300781 1.902344 C 0.292969 1.917969 0.28125 1.945312 0.269531 1.96875 C 0.261719 1.988281 0.242188 2.03125 0.226562 2.0625 C 0.207031 2.09375 0.191406 2.148438 0.183594 2.1875 C 0.179688 2.222656 0.164062 2.261719 0.152344 2.273438 C 0.140625 2.28125 0.125 2.328125 0.121094 2.371094 C 0.113281 2.417969 0.0976562 2.476562 0.0859375 2.5 C 0.0742188 2.523438 0.0585938 2.59375 0.0546875 2.648438 C 0.046875 2.707031 0.0351562 2.765625 0.0234375 2.777344 C -0.0078125 2.804688 -0.0078125 2.902344 0.0195312 2.890625 C 0.03125 2.886719 0.046875 2.84375 0.0507812 2.789062 C 0.0585938 2.738281 0.0742188 2.652344 0.0898438 2.601562 C 0.101562 2.546875 0.121094 2.472656 0.128906 2.433594 C 0.136719 2.390625 0.152344 2.335938 0.167969 2.304688 C 0.179688 2.273438 0.210938 2.1875 0.242188 2.113281 C 0.269531 2.039062 0.300781 1.960938 0.3125 1.945312 C 0.324219 1.925781 0.335938 1.902344 0.335938 1.890625 C 0.335938 1.882812 0.375 1.808594 0.421875 1.726562 C 0.464844 1.648438 0.515625 1.5625 0.527344 1.539062 C 0.691406 1.246094 1.246094 0.691406 1.539062 0.527344 C 1.5625 0.515625 1.648438 0.464844 1.726562 0.421875 C 1.808594 0.375 1.882812 0.335938 1.890625 0.335938 C 1.902344 0.335938 1.925781 0.324219 1.945312 0.3125 C 1.960938 0.300781 2.039062 0.269531 2.113281 0.242188 C 2.1875 0.210938 2.273438 0.179688 2.304688 0.167969 C 2.335938 0.152344 2.390625 0.136719 2.433594 0.128906 C 2.472656 0.121094 2.546875 0.101562 2.601562 0.0898438 C 2.652344 0.0742188 2.738281 0.0585938 2.789062 0.0507812 C 2.84375 0.046875 2.886719 0.03125 2.890625 0.0195312 C 2.902344 -0.0078125 2.796875 -0.00390625 2.773438 0.0234375 M 13.109375 0.0195312 C 13.113281 0.03125 13.15625 0.046875 13.210938 0.0507812 C 13.261719 0.0585938 13.347656 0.0742188 13.398438 0.0898438 C 13.453125 0.101562 13.527344 0.121094 13.566406 0.128906 C 13.609375 0.136719 13.664062 0.152344 13.695312 0.167969 C 13.726562 0.179688 13.8125 0.210938 13.886719 0.242188 C 13.960938 0.269531 14.039062 0.300781 14.054688 0.3125 C 14.074219 0.324219 14.097656 0.335938 14.109375 0.335938 C 14.117188 0.335938 14.191406 0.375 14.273438 0.421875 C 14.351562 0.464844 14.4375 0.515625 14.460938 0.527344 C 14.753906 0.691406 15.308594 1.246094 15.472656 1.539062 C 15.484375 1.5625 15.535156 1.648438 15.578125 1.726562 C 15.625 1.808594 15.664062 1.882812 15.664062 1.890625 C 15.664062 1.902344 15.675781 1.925781 15.6875 1.945312 C 15.699219 1.960938 15.730469 2.039062 15.757812 2.113281 C 15.789062 2.1875 15.820312 2.273438 15.832031 2.304688 C 15.847656 2.335938 15.863281 2.390625 15.871094 2.433594 C 15.878906 2.472656 15.898438 2.546875 15.910156 2.601562 C 15.925781 2.652344 15.941406 2.738281 15.949219 2.789062 C 15.953125 2.84375 15.96875 2.886719 15.980469 2.890625 C 16.007812 2.902344 16.007812 2.804688 15.976562 2.777344 C 15.964844 2.765625 15.953125 2.707031 15.945312 2.648438 C 15.941406 2.59375 15.925781 2.523438 15.914062 2.5 C 15.902344 2.476562 15.886719 2.417969 15.878906 2.371094 C 15.875 2.328125 15.859375 2.28125 15.847656 2.273438 C 15.835938 2.261719 15.820312 2.222656 15.816406 2.1875 C 15.808594 2.148438 15.792969 2.09375 15.773438 2.0625 C 15.757812 2.03125 15.738281 1.988281 15.730469 1.96875 C 15.71875 1.945312 15.707031 1.917969 15.699219 1.902344 C 15.691406 1.890625 15.660156 1.832031 15.632812 1.777344 C 15.359375 1.21875 14.78125 0.640625 14.222656 0.367188 C 14.167969 0.339844 14.109375 0.308594 14.097656 0.300781 C 14.082031 0.292969 14.054688 0.28125 14.03125 0.269531 C 14.011719 0.261719 13.96875 0.242188 13.9375 0.226562 C 13.90625 0.207031 13.851562 0.191406 13.8125 0.183594 C 13.777344 0.179688 13.738281 0.164062 13.726562 0.152344 C 13.71875 0.140625 13.671875 0.125 13.628906 0.121094 C 13.582031 0.113281 13.523438 0.0976562 13.5 0.0859375 C 13.476562 0.0742188 13.40625 0.0585938 13.351562 0.0546875 C 13.292969 0.046875 13.234375 0.0351562 13.222656 0.0234375 C 13.195312 -0.0078125 13.097656 -0.0078125 13.109375 0.0195312 M 4.191406 2.144531 C 3.3125 2.269531 2.882812 3.253906 3.386719 4 C 3.460938 4.105469 3.71875 4.335938 3.765625 4.335938 C 3.773438 4.335938 3.796875 4.347656 3.820312 4.367188 C 3.84375 4.382812 3.886719 4.402344 3.917969 4.40625 C 3.945312 4.414062 3.992188 4.429688 4.019531 4.445312 C 4.109375 4.492188 4.554688 4.484375 4.679688 4.433594 C 5.078125 4.277344 5.265625 4.09375 5.433594 3.703125 C 5.507812 3.527344 5.507812 3.097656 5.433594 2.917969 C 5.203125 2.375 4.710938 2.070312 4.191406 2.144531 M 4.617188 2.199219 C 4.6875 2.214844 4.753906 2.238281 4.769531 2.246094 C 4.78125 2.257812 4.808594 2.273438 4.832031 2.28125 C 4.855469 2.285156 4.890625 2.304688 4.910156 2.320312 C 4.929688 2.339844 4.957031 2.351562 4.96875 2.351562 C 4.980469 2.351562 4.992188 2.359375 4.992188 2.363281 C 4.992188 2.371094 5.03125 2.40625 5.078125 2.445312 C 5.125 2.480469 5.183594 2.542969 5.207031 2.578125 C 5.234375 2.613281 5.269531 2.65625 5.28125 2.667969 C 5.296875 2.683594 5.3125 2.714844 5.320312 2.734375 C 5.328125 2.757812 5.339844 2.785156 5.351562 2.800781 C 5.363281 2.8125 5.378906 2.84375 5.386719 2.871094 C 5.390625 2.898438 5.410156 2.953125 5.429688 2.988281 C 5.476562 3.097656 5.472656 3.53125 5.425781 3.640625 C 5.40625 3.683594 5.390625 3.730469 5.390625 3.742188 C 5.390625 3.757812 5.378906 3.789062 5.359375 3.8125 C 5.34375 3.835938 5.328125 3.859375 5.328125 3.867188 C 5.328125 3.945312 4.957031 4.320312 4.878906 4.320312 C 4.871094 4.320312 4.84375 4.335938 4.820312 4.351562 C 4.796875 4.371094 4.765625 4.382812 4.746094 4.382812 C 4.726562 4.382812 4.679688 4.398438 4.640625 4.417969 C 4.546875 4.460938 4.109375 4.46875 4.046875 4.425781 C 4.023438 4.414062 3.984375 4.398438 3.953125 4.390625 C 3.84375 4.367188 3.648438 4.246094 3.53125 4.132812 C 3.449219 4.046875 3.34375 3.90625 3.34375 3.878906 C 3.34375 3.867188 3.328125 3.84375 3.3125 3.820312 C 3.292969 3.796875 3.28125 3.765625 3.28125 3.753906 C 3.28125 3.738281 3.265625 3.691406 3.246094 3.652344 C 3.191406 3.539062 3.191406 3.066406 3.246094 2.96875 C 3.265625 2.933594 3.28125 2.890625 3.28125 2.871094 C 3.28125 2.851562 3.292969 2.820312 3.3125 2.800781 C 3.328125 2.78125 3.34375 2.753906 3.34375 2.742188 C 3.34375 2.714844 3.507812 2.507812 3.574219 2.460938 C 3.605469 2.4375 3.640625 2.402344 3.65625 2.386719 C 3.710938 2.332031 3.925781 2.226562 4.023438 2.210938 C 4.070312 2.199219 4.121094 2.1875 4.144531 2.175781 C 4.203125 2.152344 4.46875 2.164062 4.617188 2.199219 M 3.347656 5.347656 C 3.316406 5.378906 3.320312 12.628906 3.351562 12.652344 C 3.367188 12.667969 3.640625 12.671875 4.347656 12.667969 L 5.320312 12.664062 L 5.320312 5.335938 L 4.34375 5.332031 C 3.597656 5.328125 3.363281 5.332031 3.347656 5.347656 M 6.679688 5.347656 C 6.675781 5.359375 6.671875 7.007812 6.675781 9.015625 L 6.679688 12.664062 L 7.652344 12.667969 C 8.347656 12.671875 8.632812 12.667969 8.648438 12.65625 C 8.667969 12.640625 8.671875 12.273438 8.675781 10.625 C 8.679688 8.75 8.683594 8.609375 8.707031 8.511719 C 8.835938 8.054688 8.945312 7.867188 9.230469 7.613281 C 9.3125 7.542969 9.527344 7.414062 9.597656 7.402344 C 9.625 7.394531 9.671875 7.378906 9.699219 7.363281 C 9.847656 7.285156 10.347656 7.332031 10.574219 7.445312 C 10.714844 7.511719 10.992188 7.746094 10.992188 7.792969 C 10.992188 7.800781 11.007812 7.824219 11.03125 7.851562 C 11.09375 7.929688 11.179688 8.109375 11.226562 8.265625 C 11.328125 8.59375 11.320312 8.40625 11.324219 10.617188 C 11.328125 12.273438 11.332031 12.640625 11.351562 12.65625 C 11.367188 12.667969 11.652344 12.671875 12.347656 12.667969 L 13.320312 12.664062 L 13.324219 10.238281 C 13.328125 7.632812 13.328125 7.617188 13.246094 7.289062 C 13.238281 7.253906 13.21875 7.179688 13.207031 7.125 C 13.195312 7.074219 13.175781 7.007812 13.160156 6.984375 C 13.148438 6.957031 13.136719 6.925781 13.136719 6.914062 C 13.136719 6.894531 13.113281 6.84375 13.039062 6.679688 C 13.023438 6.644531 13 6.597656 12.992188 6.574219 C 12.976562 6.539062 12.898438 6.410156 12.792969 6.253906 C 12.683594 6.089844 12.320312 5.765625 12.121094 5.65625 C 12.007812 5.59375 11.894531 5.535156 11.882812 5.535156 C 11.875 5.535156 11.839844 5.523438 11.800781 5.503906 C 11.507812 5.367188 10.746094 5.285156 10.488281 5.359375 C 10.453125 5.371094 10.363281 5.386719 10.289062 5.398438 C 10.15625 5.421875 10.097656 5.4375 9.902344 5.507812 C 9.8125 5.539062 9.695312 5.589844 9.640625 5.621094 C 9.621094 5.628906 9.578125 5.652344 9.542969 5.667969 C 9.277344 5.796875 8.832031 6.199219 8.722656 6.414062 C 8.679688 6.492188 8.671875 6.40625 8.671875 5.886719 C 8.671875 5.503906 8.667969 5.359375 8.652344 5.347656 C 8.625 5.320312 6.691406 5.320312 6.679688 5.347656 M 5.3125 9 L 5.3125 12.65625 L 3.351562 12.648438 L 3.347656 9.015625 C 3.34375 7.019531 3.347656 5.375 3.351562 5.363281 C 3.355469 5.347656 3.570312 5.34375 4.335938 5.34375 L 5.3125 5.34375 L 5.3125 9 M 8.652344 5.894531 C 8.65625 6.421875 8.660156 6.480469 8.707031 6.480469 C 8.714844 6.480469 8.730469 6.457031 8.742188 6.425781 C 8.757812 6.398438 8.777344 6.363281 8.792969 6.351562 C 8.804688 6.339844 8.816406 6.324219 8.816406 6.316406 C 8.816406 6.296875 9.21875 5.886719 9.238281 5.886719 C 9.246094 5.886719 9.292969 5.859375 9.34375 5.820312 C 9.445312 5.742188 9.796875 5.558594 9.875 5.542969 C 9.90625 5.539062 9.941406 5.523438 9.960938 5.511719 C 9.976562 5.5 10.023438 5.488281 10.0625 5.480469 C 10.105469 5.472656 10.15625 5.457031 10.179688 5.445312 C 10.203125 5.433594 10.289062 5.417969 10.367188 5.410156 C 10.445312 5.402344 10.523438 5.386719 10.542969 5.378906 C 10.585938 5.351562 11.066406 5.347656 11.136719 5.371094 C 11.167969 5.382812 11.265625 5.398438 11.359375 5.410156 C 11.449219 5.417969 11.539062 5.4375 11.558594 5.449219 C 11.578125 5.460938 11.625 5.472656 11.664062 5.480469 C 11.703125 5.488281 11.746094 5.5 11.761719 5.511719 C 11.773438 5.523438 11.808594 5.539062 11.839844 5.542969 C 11.871094 5.550781 11.914062 5.570312 11.933594 5.585938 C 11.957031 5.601562 11.984375 5.617188 12 5.617188 C 12.015625 5.617188 12.035156 5.625 12.039062 5.632812 C 12.046875 5.640625 12.078125 5.664062 12.109375 5.679688 C 12.140625 5.699219 12.1875 5.726562 12.210938 5.742188 C 12.230469 5.753906 12.273438 5.78125 12.300781 5.800781 C 12.445312 5.898438 12.609375 6.058594 12.75 6.246094 C 12.777344 6.28125 12.808594 6.324219 12.824219 6.335938 C 12.835938 6.351562 12.847656 6.371094 12.847656 6.378906 C 12.847656 6.390625 12.925781 6.515625 12.960938 6.554688 C 12.96875 6.566406 12.980469 6.59375 12.984375 6.617188 C 12.992188 6.644531 13.011719 6.679688 13.027344 6.703125 C 13.042969 6.722656 13.054688 6.75 13.054688 6.765625 C 13.054688 6.777344 13.070312 6.816406 13.085938 6.855469 C 13.132812 6.957031 13.167969 7.074219 13.183594 7.160156 C 13.191406 7.207031 13.210938 7.269531 13.222656 7.296875 C 13.234375 7.328125 13.25 7.417969 13.253906 7.496094 C 13.261719 7.574219 13.277344 7.683594 13.289062 7.742188 C 13.308594 7.824219 13.3125 8.234375 13.3125 10.25 L 13.3125 12.65625 L 11.351562 12.648438 L 11.34375 10.585938 C 11.335938 8.660156 11.335938 8.515625 11.308594 8.460938 C 11.292969 8.429688 11.28125 8.378906 11.28125 8.347656 C 11.28125 8.320312 11.265625 8.265625 11.246094 8.226562 C 11.230469 8.1875 11.214844 8.148438 11.214844 8.136719 C 11.214844 8.125 11.203125 8.097656 11.1875 8.078125 C 11.171875 8.058594 11.152344 8.019531 11.144531 7.996094 C 11.136719 7.957031 11.085938 7.871094 11.054688 7.839844 C 11.050781 7.835938 11.027344 7.804688 11 7.769531 C 10.910156 7.644531 10.75 7.507812 10.625 7.445312 C 10.601562 7.433594 10.574219 7.417969 10.558594 7.410156 C 10.367188 7.292969 9.816406 7.265625 9.632812 7.359375 C 9.601562 7.378906 9.5625 7.390625 9.542969 7.390625 C 9.523438 7.390625 9.5 7.398438 9.496094 7.410156 C 9.488281 7.417969 9.460938 7.4375 9.433594 7.449219 C 9.324219 7.5 9.25 7.554688 9.113281 7.6875 C 9.03125 7.765625 8.863281 7.984375 8.863281 8.011719 C 8.863281 8.019531 8.84375 8.0625 8.824219 8.113281 C 8.800781 8.160156 8.769531 8.222656 8.757812 8.246094 C 8.746094 8.273438 8.730469 8.335938 8.71875 8.386719 C 8.710938 8.4375 8.695312 8.496094 8.683594 8.515625 C 8.667969 8.542969 8.664062 8.953125 8.65625 10.601562 L 8.648438 12.648438 L 6.6875 12.65625 L 6.6875 5.34375 L 8.648438 5.351562 L 8.652344 5.894531 M 0 13.152344 C 0 13.179688 0.0078125 13.210938 0.0234375 13.222656 C 0.0351562 13.234375 0.046875 13.292969 0.0546875 13.351562 C 0.0585938 13.40625 0.0742188 13.476562 0.0859375 13.5 C 0.0976562 13.523438 0.113281 13.578125 0.121094 13.625 C 0.125 13.667969 0.140625 13.714844 0.152344 13.726562 C 0.164062 13.742188 0.175781 13.777344 0.183594 13.808594 C 0.1875 13.839844 0.207031 13.894531 0.222656 13.929688 C 0.238281 13.964844 0.261719 14.011719 0.269531 14.03125 C 0.28125 14.054688 0.292969 14.082031 0.300781 14.097656 C 0.308594 14.109375 0.324219 14.136719 0.335938 14.160156 C 0.34375 14.183594 0.359375 14.210938 0.367188 14.222656 C 0.371094 14.238281 0.390625 14.265625 0.402344 14.289062 C 0.535156 14.542969 0.71875 14.785156 0.964844 15.035156 C 1.214844 15.28125 1.457031 15.464844 1.710938 15.597656 C 1.734375 15.609375 1.761719 15.628906 1.777344 15.632812 C 1.789062 15.640625 1.816406 15.65625 1.839844 15.664062 C 1.863281 15.675781 1.890625 15.691406 1.902344 15.699219 C 1.917969 15.707031 1.945312 15.71875 1.96875 15.730469 C 1.988281 15.738281 2.03125 15.757812 2.0625 15.773438 C 2.09375 15.792969 2.148438 15.808594 2.1875 15.816406 C 2.222656 15.820312 2.261719 15.835938 2.273438 15.847656 C 2.28125 15.859375 2.328125 15.875 2.371094 15.878906 C 2.417969 15.886719 2.476562 15.902344 2.5 15.914062 C 2.523438 15.925781 2.59375 15.941406 2.648438 15.945312 C 2.707031 15.953125 2.765625 15.964844 2.777344 15.976562 C 2.804688 16.007812 2.902344 16.007812 2.890625 15.980469 C 2.886719 15.96875 2.84375 15.953125 2.789062 15.949219 C 2.738281 15.941406 2.652344 15.925781 2.601562 15.910156 C 2.546875 15.898438 2.472656 15.878906 2.433594 15.871094 C 2.390625 15.863281 2.335938 15.847656 2.304688 15.832031 C 2.273438 15.820312 2.1875 15.789062 2.113281 15.757812 C 2.039062 15.730469 1.960938 15.699219 1.945312 15.6875 C 1.925781 15.675781 1.902344 15.664062 1.890625 15.664062 C 1.882812 15.664062 1.808594 15.625 1.726562 15.578125 C 1.648438 15.535156 1.5625 15.484375 1.539062 15.472656 C 1.246094 15.308594 0.691406 14.753906 0.527344 14.460938 C 0.515625 14.4375 0.464844 14.351562 0.421875 14.273438 C 0.375 14.191406 0.335938 14.117188 0.335938 14.109375 C 0.335938 14.097656 0.324219 14.074219 0.3125 14.054688 C 0.300781 14.039062 0.269531 13.960938 0.242188 13.886719 C 0.210938 13.8125 0.179688 13.726562 0.167969 13.695312 C 0.152344 13.664062 0.136719 13.609375 0.128906 13.566406 C 0.121094 13.527344 0.101562 13.453125 0.0898438 13.398438 C 0.0742188 13.347656 0.0585938 13.261719 0.0507812 13.210938 C 0.0390625 13.105469 0 13.0625 0 13.152344 M 15.960938 13.117188 C 15.957031 13.125 15.945312 13.191406 15.9375 13.265625 C 15.929688 13.339844 15.910156 13.429688 15.898438 13.464844 C 15.886719 13.5 15.871094 13.554688 15.863281 13.589844 C 15.859375 13.625 15.84375 13.675781 15.832031 13.703125 C 15.820312 13.730469 15.789062 13.8125 15.757812 13.886719 C 15.730469 13.960938 15.699219 14.039062 15.6875 14.054688 C 15.675781 14.074219 15.664062 14.097656 15.664062 14.109375 C 15.664062 14.117188 15.625 14.191406 15.578125 14.273438 C 15.535156 14.351562 15.484375 14.4375 15.472656 14.460938 C 15.308594 14.753906 14.753906 15.308594 14.460938 15.472656 C 14.4375 15.484375 14.351562 15.535156 14.273438 15.578125 C 14.191406 15.625 14.117188 15.664062 14.109375 15.664062 C 14.097656 15.664062 14.074219 15.675781 14.054688 15.6875 C 14.039062 15.699219 13.960938 15.730469 13.886719 15.757812 C 13.8125 15.789062 13.726562 15.820312 13.695312 15.832031 C 13.664062 15.847656 13.609375 15.863281 13.566406 15.871094 C 13.527344 15.878906 13.453125 15.898438 13.398438 15.910156 C 13.347656 15.925781 13.261719 15.941406 13.210938 15.949219 C 13.15625 15.953125 13.113281 15.96875 13.109375 15.980469 C 13.097656 16.007812 13.195312 16.007812 13.222656 15.976562 C 13.234375 15.964844 13.292969 15.953125 13.351562 15.945312 C 13.40625 15.941406 13.476562 15.925781 13.5 15.914062 C 13.523438 15.902344 13.582031 15.886719 13.628906 15.878906 C 13.671875 15.875 13.71875 15.859375 13.726562 15.847656 C 13.738281 15.835938 13.777344 15.820312 13.8125 15.816406 C 13.851562 15.808594 13.90625 15.792969 13.9375 15.773438 C 13.96875 15.757812 14.011719 15.738281 14.03125 15.730469 C 14.054688 15.71875 14.082031 15.707031 14.097656 15.699219 C 14.109375 15.691406 14.167969 15.660156 14.222656 15.632812 C 14.753906 15.375 15.320312 14.824219 15.597656 14.289062 C 15.609375 14.265625 15.628906 14.238281 15.632812 14.222656 C 15.640625 14.210938 15.65625 14.183594 15.664062 14.160156 C 15.675781 14.136719 15.691406 14.109375 15.699219 14.097656 C 15.707031 14.082031 15.71875 14.054688 15.730469 14.03125 C 15.738281 14.011719 15.757812 13.96875 15.773438 13.9375 C 15.792969 13.90625 15.808594 13.851562 15.816406 13.8125 C 15.820312 13.777344 15.835938 13.738281 15.847656 13.726562 C 15.859375 13.71875 15.875 13.671875 15.878906 13.628906 C 15.886719 13.582031 15.902344 13.523438 15.914062 13.5 C 15.925781 13.476562 15.941406 13.40625 15.945312 13.351562 C 15.953125 13.292969 15.964844 13.234375 15.976562 13.222656 C 16.003906 13.199219 16.007812 13.105469 15.984375 13.105469 C 15.976562 13.105469 15.964844 13.109375 15.960938 13.117188 "/>
</g>
</svg>
